<svg width="26" height="25" viewBox="0 0 26 25" fill="none" xmlns="http://www.w3.org/2000/svg">
<path d="M15.894 24.0209C17.0776 24.7845 18.4881 25.1172 19.8882 24.9632C21.2883 24.8092 22.5927 24.1778 23.582 23.1752L24.4469 22.3295C24.8261 21.9416 25.0384 21.4208 25.0384 20.8784C25.0384 20.336 24.8261 19.8151 24.4469 19.4273L20.7759 15.7946C20.3913 15.4167 19.8736 15.2049 19.3344 15.2049C18.7951 15.2049 18.2775 15.4167 17.8929 15.7946V15.7946C17.505 16.1738 16.9842 16.3861 16.4417 16.3861C15.8993 16.3861 15.3785 16.1738 14.9906 15.7946L9.22458 10.0286C9.03223 9.83904 8.87948 9.61313 8.77522 9.36401C8.67096 9.11489 8.61727 8.84753 8.61727 8.57747C8.61727 8.30741 8.67096 8.04005 8.77522 7.79093C8.87948 7.54181 9.03223 7.31591 9.22458 7.12635V7.12635C9.60255 6.74175 9.81435 6.22408 9.81435 5.68484C9.81435 5.1456 9.60255 4.62793 9.22458 4.24333L5.57275 0.591494C5.1849 0.21231 4.66403 0 4.12162 0C3.57922 0 3.05835 0.21231 2.6705 0.591494L1.82482 1.4564C0.822188 2.44574 0.190784 3.75014 0.0367708 5.15026C-0.117243 6.55038 0.215528 7.96084 0.979129 9.14447C4.95779 15.008 10.0202 20.0574 15.894 24.0209V24.0209Z" fill="#111111"/>
</svg>
