<svg width="59" height="50" viewBox="0 0 59 50" fill="none" xmlns="http://www.w3.org/2000/svg">
<g clip-path="url(#clip0_170_599)">
<path d="M44.4999 23.3047V44.8325C44.4999 46.9158 42.8332 48.5825 40.7499 48.5825H5.19434C3.111 48.5825 1.44434 46.9158 1.44434 44.8325V23.3047C1.44434 21.2214 3.111 19.5547 5.19434 19.5547H40.7499C42.8332 19.5547 44.4999 21.2214 44.4999 23.3047Z" stroke="white" stroke-width="3" stroke-miterlimit="10" stroke-linecap="round" stroke-linejoin="round"/>
<path d="M1.44434 27.1934H44.4999" stroke="white" stroke-width="3" stroke-miterlimit="10" stroke-linecap="round" stroke-linejoin="round"/>
<path d="M12.6943 13.9995L15.3332 4.27727C15.8888 2.19393 17.9721 1.08282 20.0554 1.63838L54.2221 10.805C56.3054 11.3606 57.4166 13.4439 56.861 15.5273L51.3054 36.3606" stroke="white" stroke-width="3" stroke-miterlimit="10" stroke-linecap="round" stroke-linejoin="round"/>
<path d="M14.2217 8.02734L55.8883 19.1385" stroke="white" stroke-width="3" stroke-miterlimit="10" stroke-linecap="round" stroke-linejoin="round"/>
</g>
<defs>
<clipPath id="clip0_170_599">
<rect width="58.4444" height="50" fill="white"/>
</clipPath>
</defs>
</svg>
