<svg width="59" height="50" viewBox="0 0 59 50" fill="none" xmlns="http://www.w3.org/2000/svg">
<g clip-path="url(#clip0_343_158)">
<path d="M44.4999 23.3055V44.8333C44.4999 46.9167 42.8332 48.5833 40.7499 48.5833H5.19434C3.111 48.5833 1.44434 46.9167 1.44434 44.8333V23.3055C1.44434 21.2222 3.111 19.5555 5.19434 19.5555H40.7499C42.8332 19.5555 44.4999 21.2222 44.4999 23.3055Z" stroke="url(#paint0_linear_343_158)" stroke-width="3" stroke-miterlimit="10" stroke-linecap="round" stroke-linejoin="round"/>
<path d="M1.44434 27.1945H44.4999" stroke="url(#paint1_linear_343_158)" stroke-width="3" stroke-miterlimit="10" stroke-linecap="round" stroke-linejoin="round"/>
<path d="M12.6943 14L15.3332 4.27775C15.8888 2.19442 17.9721 1.08331 20.0554 1.63887L54.2221 10.8055C56.3054 11.3611 57.4166 13.4444 56.861 15.5278L51.3054 36.3611" stroke="url(#paint2_linear_343_158)" stroke-width="3" stroke-miterlimit="10" stroke-linecap="round" stroke-linejoin="round"/>
<path d="M14.2222 8.02771L55.8888 19.1388" stroke="url(#paint3_linear_343_158)" stroke-width="3" stroke-miterlimit="10" stroke-linecap="round" stroke-linejoin="round"/>
</g>
<defs>
<linearGradient id="paint0_linear_343_158" x1="22.9721" y1="19.5555" x2="22.9721" y2="48.5833" gradientUnits="userSpaceOnUse">
<stop stop-color="#A30049"/>
<stop offset="1" stop-color="#3D001B"/>
</linearGradient>
<linearGradient id="paint1_linear_343_158" x1="22.9721" y1="27.1945" x2="22.9721" y2="28.1945" gradientUnits="userSpaceOnUse">
<stop stop-color="#A30049"/>
<stop offset="1" stop-color="#3D001B"/>
</linearGradient>
<linearGradient id="paint2_linear_343_158" x1="34.8488" y1="1.49658" x2="34.8488" y2="36.3611" gradientUnits="userSpaceOnUse">
<stop stop-color="#A30049"/>
<stop offset="1" stop-color="#3D001B"/>
</linearGradient>
<linearGradient id="paint3_linear_343_158" x1="35.0555" y1="8.02771" x2="35.0555" y2="19.1388" gradientUnits="userSpaceOnUse">
<stop stop-color="#A30049"/>
<stop offset="1" stop-color="#3D001B"/>
</linearGradient>
<clipPath id="clip0_343_158">
<rect width="58.4444" height="50" fill="white"/>
</clipPath>
</defs>
</svg>
