<svg width="25" height="20" viewBox="0 0 25 20" fill="none" xmlns="http://www.w3.org/2000/svg">
<g clip-path="url(#clip0_789_315)">
<path d="M24.9012 4.55554V16.5595C24.9012 17.2173 24.6399 17.8481 24.1748 18.3132C23.7097 18.7784 23.0788 19.0397 22.421 19.0397H2.57977C1.92199 19.0397 1.29115 18.7784 0.826031 18.3132C0.360911 17.8481 0.0996094 17.2173 0.0996094 16.5595V5.01437L2.57977 6.36606L11.9052 11.4504C12.088 11.5491 12.2927 11.6002 12.5004 11.5992C12.7188 11.5969 12.9327 11.537 13.1204 11.4256L22.421 6.00643L24.9012 4.55554Z" fill="white"/>
<path d="M24.9012 2.67852L22.421 4.14182L12.5004 9.93299L2.57977 4.53864L0.0996094 3.17455V2.67852C0.0996094 2.02074 0.360911 1.38991 0.826031 0.924786C1.29115 0.459666 1.92199 0.198364 2.57977 0.198364H22.421C23.0788 0.198364 23.7097 0.459666 24.1748 0.924786C24.6399 1.38991 24.9012 2.02074 24.9012 2.67852Z" fill="white"/>
</g>
<defs>
<clipPath id="clip0_789_315">
<rect width="25" height="20" fill="white"/>
</clipPath>
</defs>
</svg>
