<svg width="25" height="25" viewBox="0 0 25 25" fill="none" xmlns="http://www.w3.org/2000/svg">
<path d="M25 12.5C25 19.4036 19.4036 25 12.5 25C5.59644 25 0 19.4036 0 12.5C0 5.59644 5.59644 0 12.5 0C19.4036 0 25 5.59644 25 12.5Z" fill="#0052B5"/>
<path d="M9.375 6.875V0.393805C9.88401 0.262795 10.4056 0.16304 10.9375 0.096709C11.4494 0.0328802 11.9708 0 12.5 0C13.0292 0 13.5506 0.0328802 14.0625 0.096709C14.5944 0.16304 15.116 0.262795 15.625 0.393805V8.59375L20.9375 3.27717C21.5102 3.80137 22.3454 4.84695 22.8125 5.46875L18.75 9.375H24.6062C24.7372 9.88401 24.837 10.4056 24.9033 10.9375C24.9671 11.4494 25 11.9708 25 12.5C25 13.0292 24.9671 13.5506 24.9033 14.0625C24.837 14.5944 24.7372 15.116 24.6062 15.625H17.8125L22.5009 20C21.829 20.8946 21.0398 21.696 20.1562 22.3816L15.625 17.8125V24.6062C15.116 24.7372 14.5944 24.837 14.0625 24.9033C13.5506 24.9671 13.0292 25 12.5 25C11.9708 25 11.4494 24.9671 10.9375 24.9033C10.4056 24.837 9.884 24.7372 9.375 24.6062L9.375 16.5625L4.21875 21.8635C3.51947 21.2445 2.89003 20.5485 2.34375 19.7886L6.875 15.625H0.393805C0.262795 15.116 0.163041 14.5944 0.0967097 14.0625C0.0328805 13.5506 0 13.0292 0 12.5C0 11.9708 0.0328802 11.4494 0.096709 10.9375C0.16304 10.4056 0.262795 9.88401 0.393805 9.375H7.03125L2.5 4.99878C3.19353 4.07569 4.0119 3.25175 4.93004 2.55201L9.375 6.875Z" fill="white"/>
<path d="M9.375 9.375L3.67029 3.65205C3.36864 3.95309 3.08228 4.26945 2.8125 4.59987L7.8125 9.375H9.375Z" fill="#D90026"/>
<path d="M15.625 9.375L21.3297 3.65205C21.6314 3.95308 21.9177 4.26945 22.1875 4.59987L17.1875 9.375H15.625Z" fill="#D90026"/>
<path d="M15.625 15.7323L21.3297 21.4552C21.6314 21.1542 21.9177 20.8378 22.1875 20.5074L17.1875 15.7323H15.625Z" fill="#D90026"/>
<path d="M9.375 15.7323L3.67029 21.4552C3.36864 21.1542 3.08228 20.8378 2.8125 20.5074L7.8125 15.7323H9.375Z" fill="#D90026"/>
<path d="M0.096709 10.9375C0.0328802 11.4494 0 11.9708 0 12.5C0 13.0292 0.0328805 13.5506 0.0967097 14.0625H10.9375V24.9033C11.4494 24.9671 11.9708 25 12.5 25C13.0292 25 13.5506 24.9671 14.0625 24.9033V14.0625H24.9033C24.9671 13.5506 25 13.0292 25 12.5C25 11.9708 24.9671 11.4494 24.9033 10.9375H14.0625V0.096709C13.4509 0.00470825 13.1373 0 12.5 0C11.9708 0 11.4494 0.0328802 10.9375 0.096709V10.9375H0.096709Z" fill="#D90026"/>
</svg>
