<svg width="20" height="25" viewBox="0 0 20 25" fill="none" xmlns="http://www.w3.org/2000/svg">
<path d="M9.61538 0C4.32692 0 0 4.32692 0 9.61538C0 17.6923 8.65385 24.5192 9.03846 24.8077C9.23077 24.9038 9.42308 25 9.61538 25C9.80769 25 10 24.9038 10.1923 24.8077C10.5769 24.5192 19.2308 17.6923 19.2308 9.61538C19.2308 4.32692 14.9038 0 9.61538 0ZM9.61538 13.4615C7.5 13.4615 5.76923 11.7308 5.76923 9.61538C5.76923 7.5 7.5 5.76923 9.61538 5.76923C11.7308 5.76923 13.4615 7.5 13.4615 9.61538C13.4615 11.7308 11.7308 13.4615 9.61538 13.4615Z" fill="white"/>
</svg>
