<svg width="15" height="15" viewBox="0 0 15 15" fill="none" xmlns="http://www.w3.org/2000/svg">
<path d="M0.39 0.447347C-0.13 0.967347 -0.13 1.80735 0.39 2.32735L5.56333 7.50068L0.39 12.674C-0.13 13.194 -0.13 14.034 0.39 14.554C0.91 15.074 1.75 15.074 2.27 14.554L8.39 8.43401C8.91 7.91401 8.91 7.07401 8.39 6.55401L2.27 0.434013C1.76333 -0.0726532 0.91 -0.0726529 0.39 0.447347Z" fill="white"/>
<path d="M5.72203 0.447347C5.20203 0.967347 5.20203 1.80735 5.72203 2.32735L10.8954 7.50068L5.72203 12.674C5.20203 13.194 5.20203 14.034 5.72203 14.554C6.24203 15.074 7.08203 15.074 7.60203 14.554L13.722 8.43401C14.242 7.91401 14.242 7.07401 13.722 6.55401L7.60203 0.434013C7.09536 -0.0726532 6.24203 -0.0726529 5.72203 0.447347Z" fill="white"/>
</svg>
