<svg width="15" height="15" viewBox="0 0 15 15" fill="none" xmlns="http://www.w3.org/2000/svg">
<path d="M7.54999 0.96875C11.2961 0.96875 14.3312 4.00391 14.3312 7.75C14.3312 11.4961 11.2961 14.5312 7.54999 14.5312C3.80389 14.5312 0.768738 11.4961 0.768738 7.75C0.768738 4.00391 3.80389 0.96875 7.54999 0.96875ZM10.0656 9.52734C10.1203 9.47266 10.175 9.36328 10.175 9.25391C10.175 9.11719 10.093 9.00781 10.0109 8.92578L8.42499 7.75V3.8125C8.42499 3.59375 8.20624 3.375 7.98749 3.375H7.11249C6.86639 3.375 6.67499 3.59375 6.67499 3.8125V8.07812C6.67499 8.43359 6.81171 8.73438 7.08514 8.92578L8.91718 10.293C8.97186 10.3477 9.08124 10.4023 9.16327 10.4023C9.32733 10.4023 9.43671 10.3203 9.51874 10.2109L10.0656 9.52734Z" fill="url(#paint0_linear_236_265)"/>
<defs>
<linearGradient id="paint0_linear_236_265" x1="12.5" y1="3.24628e-08" x2="5" y2="16" gradientUnits="userSpaceOnUse">
<stop stop-color="#C4095C"/>
<stop offset="1" stop-color="#61062E"/>
</linearGradient>
</defs>
</svg>
