<svg width="13" height="15" viewBox="0 0 13 15" fill="none" xmlns="http://www.w3.org/2000/svg">
<path d="M6.16498 7.75C4.22357 7.75 2.66498 6.19141 2.66498 4.25C2.66498 2.33594 4.22357 0.75 6.16498 0.75C8.07904 0.75 9.66498 2.33594 9.66498 4.25C9.66498 6.19141 8.07904 7.75 6.16498 7.75ZM8.59857 8.625C10.622 8.625 12.29 10.293 12.29 12.3164V13.4375C12.29 14.1758 11.6884 14.75 10.9775 14.75H1.35248C0.614197 14.75 0.039978 14.1758 0.039978 13.4375V12.3164C0.039978 10.293 1.6806 8.625 3.70404 8.625H4.16888C4.77045 8.92578 5.45404 9.0625 6.16498 9.0625C6.87592 9.0625 7.53217 8.92578 8.13373 8.625H8.59857Z" fill="url(#paint0_linear_236_267)"/>
<defs>
<linearGradient id="paint0_linear_236_267" x1="8" y1="1" x2="2.5" y2="16.5" gradientUnits="userSpaceOnUse">
<stop stop-color="#C10559"/>
<stop offset="1" stop-color="#61062E"/>
</linearGradient>
</defs>
</svg>
