<svg width="327" height="212" viewBox="0 0 327 212" fill="none" xmlns="http://www.w3.org/2000/svg">
<g clip-path="url(#clip0_2167_1763)" filter="url(#filter0_d_2167_1763)">
<path d="M281.566 10.4695C286.368 7.21948 292.087 4.67782 298.712 2.84448C305.348 1.01115 310.712 0.0944824 314.796 0.0944824C318.889 0.0944824 321.509 0.0944824 322.65 0.0944824V2.21948C316.009 2.50073 309.796 3.80282 304.004 6.13615C298.223 8.45907 293.462 11.1361 289.712 14.1778C285.973 17.2091 282.342 21.2299 278.816 26.2403C275.285 31.2559 272.572 35.5268 270.671 39.0528C268.764 42.5841 266.546 47.0945 264.004 52.5945L205.129 181.324C199.905 192.772 197.296 200.042 197.296 203.136H195.4L135.9 67.4278C133.926 62.9174 131.212 59.5684 127.754 57.3862C124.296 55.1934 120.801 54.0945 117.275 54.0945H115.566V51.9695H163.212V54.0945H161.316C157.077 54.0945 154.254 56.0684 152.837 60.0112C152.556 60.8601 152.421 61.8549 152.421 62.9903C152.421 64.1153 152.775 65.5268 153.483 67.2195L197.733 178.157L250.233 52.5945C258.566 32.9851 269.009 18.9434 281.566 10.4695Z" fill="#A30049"/>
<path d="M41.166 52.4278C36.791 47.209 34.6035 42.0215 34.6035 36.8653C34.6035 31.7142 35.8066 27.2715 38.2077 23.5319C40.6139 19.7975 44.4941 16.6257 49.8535 14.0111C55.2129 11.4017 61.2806 10.0944 68.0618 10.0944H154.874C159.249 10.0944 164.083 9.67255 169.374 8.82359C174.666 7.97984 178.374 7.13088 180.499 6.28192V32.9486L178.374 32.7403V29.1361C178.374 25.7507 177.171 22.8236 174.77 20.3653C172.364 17.8965 169.546 16.5892 166.312 16.4486H126.083V143.261C126.218 148.344 128.479 152.157 132.854 154.699C134.963 155.824 137.218 156.386 139.624 156.386H142.374V158.511H96.0202V156.386H98.7702C102.437 156.386 105.572 155.126 108.187 152.594C110.796 150.053 112.171 147.011 112.312 143.469V16.4486H68.0618C56.7702 16.4486 48.5827 20.0475 43.4993 27.2403C40.8223 30.9069 39.4785 34.7559 39.4785 38.7819C39.4785 42.7975 40.6139 47.0007 42.8743 51.3861L41.166 52.4278Z" fill="#A30049"/>
<path d="M13.8464 88.5208L13.4714 90.8333H10.6797V98H8.01302V90.8333H5.05469V88.5208H13.8464Z" fill="white"/>
<path d="M31.3086 90.7916H27.0169V92.1041H30.9544V94.375H27.0169V95.7083H31.4128L31.2461 98H24.3711V88.5208H31.3086V90.7916Z" fill="white"/>
<path d="M50.2663 88.5208L49.8913 90.8333H47.0996V98H44.4329V90.8333H41.4746V88.5208H50.2663Z" fill="white"/>
<path d="M60.791 98V88.5208H63.4785V98H60.791Z" fill="white"/>
<path d="M73.9111 98L78.0986 88.5208H80.307L84.3486 98H81.6403L80.9736 96.3125H77.307L76.5986 98H73.9111ZM78.2028 94.1041H80.0986L79.182 91.7708L78.2028 94.1041Z" fill="white"/>
<path d="M100.884 88.5208H103.446V98H101.071L97.4046 92.8958V98H94.8213V88.5208H97.2171L100.884 93.6041V88.5208Z" fill="white"/>
<path d="M113.881 98L118.068 88.5208H120.277L124.318 98H121.61L120.943 96.3125H117.277L116.568 98H113.881ZM118.173 94.1041H120.068L119.152 91.7708L118.173 94.1041Z" fill="white"/>
<path d="M154.638 88.5208H157.304L153.992 98H150.221L147.45 88.5208H150.284L152.263 95.6041L154.638 88.5208Z" fill="white"/>
<path d="M174.678 90.7916H170.386V92.1041H174.324V94.375H170.386V95.7083H174.782L174.615 98H167.74V88.5208H174.678V90.7916Z" fill="white"/>
<path d="M194.219 95.5416L194.823 97.6041C194.615 97.7708 194.328 97.9062 193.969 98C193.62 98.1094 193.26 98.1666 192.885 98.1666C192.187 98.1666 191.604 98.0416 191.135 97.7916C190.677 97.5312 190.302 97.1614 190.01 96.6875L189.135 95.1875C189.021 95.0208 188.917 94.8958 188.823 94.8125C188.724 94.7187 188.604 94.6562 188.469 94.625V98H185.844V88.5208H189.052C190.51 88.5208 191.583 88.8021 192.281 89.3541C192.99 89.8958 193.344 90.6614 193.344 91.6458C193.344 92.3437 193.141 92.9166 192.74 93.375C192.333 93.8333 191.807 94.1562 191.156 94.3333C191.49 94.4479 191.75 94.6458 191.948 94.9375L192.198 95.3125C192.417 95.6614 192.76 95.8333 193.219 95.8333C193.385 95.8333 193.552 95.8125 193.719 95.7708C193.885 95.7291 194.052 95.6562 194.219 95.5416ZM189.031 90.6666H188.469V92.5416H189.156C189.724 92.5416 190.12 92.4687 190.344 92.3125C190.578 92.1614 190.698 91.9166 190.698 91.5833C190.698 91.2396 190.542 91 190.24 90.875C189.932 90.7396 189.531 90.6666 189.031 90.6666Z" fill="white"/>
<path d="M205.16 98V88.5208H208.973C210.223 88.5208 211.181 88.7604 211.848 89.2291C212.514 89.6875 212.848 90.3489 212.848 91.2083C212.848 91.6146 212.764 91.9896 212.598 92.3333C212.431 92.6823 212.202 92.9687 211.91 93.1875C212.243 93.3541 212.514 93.6146 212.723 93.9583C212.941 94.2916 213.056 94.6875 213.056 95.1458C213.056 95.7187 212.895 96.2187 212.577 96.6458C212.254 97.0625 211.806 97.3958 211.223 97.6458C210.65 97.8854 209.983 98 209.223 98H205.16ZM209.098 90.6666H207.785V92.1458H209.077C209.462 92.1458 209.749 92.0833 209.931 91.9583C210.108 91.8333 210.202 91.6458 210.202 91.3958C210.202 90.9114 209.832 90.6666 209.098 90.6666ZM207.785 95.8541H209.327C209.66 95.8541 209.921 95.7916 210.118 95.6666C210.311 95.5312 210.41 95.3229 210.41 95.0416C210.41 94.7916 210.327 94.6146 210.16 94.5C209.993 94.375 209.712 94.3125 209.327 94.3125H207.785V95.8541Z" fill="white"/>
<path d="M224.157 98V88.5208H226.845V98H224.157Z" fill="white"/>
<path d="M246.382 88.5208L246.007 90.8333H243.216V98H240.549V90.8333H237.591V88.5208H246.382Z" fill="white"/>
<path d="M260.115 98.125C258.917 98.125 257.99 97.875 257.324 97.375C256.657 96.8646 256.271 96.1198 256.178 95.1458L258.657 94.7917C258.667 95.1406 258.813 95.4167 259.094 95.625C259.37 95.8333 259.74 95.9375 260.199 95.9375C261.001 95.9375 261.407 95.724 261.407 95.2917C261.407 95.099 261.292 94.9375 261.074 94.8125C260.85 94.6875 260.48 94.5625 259.969 94.4375C258.855 94.1771 258.042 93.8229 257.532 93.375C257.016 92.9323 256.761 92.3073 256.761 91.5C256.771 90.8906 256.938 90.349 257.261 89.875C257.579 89.4063 258.021 89.0365 258.594 88.7708C259.162 88.5104 259.834 88.375 260.615 88.375C261.574 88.375 262.355 88.6198 262.969 89.1042C263.594 89.5937 263.949 90.2448 264.032 91.0625L261.699 91.4792C261.657 91.2187 261.516 91 261.282 90.8333C261.058 90.6667 260.787 90.5833 260.469 90.5833C260.162 90.5833 259.917 90.6458 259.74 90.7708C259.558 90.8958 259.469 91.0573 259.469 91.25C259.469 91.4479 259.558 91.6146 259.74 91.75C259.917 91.8906 260.266 92.0208 260.782 92.1458C261.501 92.3125 262.105 92.5156 262.594 92.75C263.094 92.974 263.469 93.2656 263.719 93.625C263.98 93.974 264.115 94.4375 264.115 95.0208C264.115 95.6354 263.949 96.1771 263.615 96.6458C263.282 97.1198 262.808 97.4896 262.199 97.75C261.6 98 260.907 98.125 260.115 98.125Z" fill="white"/>
<path d="M275.251 98V88.5208H277.938V92.4583L281.313 88.5208H284.48L280.355 93.2708C280.563 93.3854 280.751 93.5312 280.918 93.7083C281.084 93.8906 281.23 94.0833 281.355 94.2916L281.876 95.1875C282.11 95.6198 282.465 95.8333 282.938 95.8333C283.324 95.8333 283.668 95.7396 283.959 95.5416L284.584 97.6041C284.36 97.7708 284.069 97.9062 283.709 98C283.36 98.1094 283.006 98.1666 282.647 98.1666C281.298 98.1666 280.334 97.6771 279.751 96.6875L278.897 95.1875C278.756 94.9531 278.616 94.7812 278.48 94.6666C278.34 94.5416 278.157 94.4583 277.938 94.4166V98H275.251Z" fill="white"/>
<path d="M293.695 98L297.883 88.5208H300.091L304.133 98H301.424L300.758 96.3125H297.091L296.383 98H293.695ZM297.987 94.1041H299.883L298.966 91.7708L297.987 94.1041Z" fill="white"/>
<path d="M13.3454 88.5208L12.9704 90.8333H10.1787V98H7.51204V90.8333H4.55371V88.5208H13.3454Z" fill="white"/>
<path d="M30.8076 90.7916H26.516V92.1041H30.4535V94.375H26.516V95.7083H30.9118L30.7451 98H23.8701V88.5208H30.8076V90.7916Z" fill="white"/>
<path d="M49.7653 88.5208L49.3903 90.8333H46.5986V98H43.932V90.8333H40.9736V88.5208H49.7653Z" fill="white"/>
<path d="M60.29 98V88.5208H62.9775V98H60.29Z" fill="white"/>
<path d="M73.4111 98L77.5986 88.5208H79.807L83.8486 98H81.1403L80.4736 96.3125H76.807L76.0986 98H73.4111ZM77.7028 94.1041H79.5986L78.682 91.7708L77.7028 94.1041Z" fill="white"/>
<path d="M100.383 88.5208H102.945V98H100.57L96.9036 92.8958V98H94.3203V88.5208H96.7161L100.383 93.6041V88.5208Z" fill="white"/>
<path d="M113.38 98L117.567 88.5208H119.776L123.817 98H121.109L120.442 96.3125H116.776L116.067 98H113.38ZM117.672 94.1041H119.567L118.651 91.7708L117.672 94.1041Z" fill="white"/>
<path d="M154.137 88.5208H156.803L153.491 98H149.72L146.949 88.5208H149.783L151.762 95.6041L154.137 88.5208Z" fill="white"/>
<path d="M174.177 90.7916H169.885V92.1041H173.823V94.375H169.885V95.7083H174.281L174.114 98H167.239V88.5208H174.177V90.7916Z" fill="white"/>
<path d="M193.718 95.5416L194.322 97.6041C194.114 97.7708 193.827 97.9062 193.468 98C193.119 98.1094 192.759 98.1666 192.384 98.1666C191.687 98.1666 191.103 98.0416 190.634 97.7916C190.176 97.5312 189.801 97.1614 189.509 96.6875L188.634 95.1875C188.52 95.0208 188.416 94.8958 188.322 94.8125C188.223 94.7187 188.103 94.6562 187.968 94.625V98H185.343V88.5208H188.551C190.009 88.5208 191.082 88.8021 191.78 89.3541C192.489 89.8958 192.843 90.6614 192.843 91.6458C192.843 92.3437 192.64 92.9166 192.239 93.375C191.832 93.8333 191.306 94.1562 190.655 94.3333C190.989 94.4479 191.249 94.6458 191.447 94.9375L191.697 95.3125C191.916 95.6614 192.259 95.8333 192.718 95.8333C192.884 95.8333 193.051 95.8125 193.218 95.7708C193.384 95.7291 193.551 95.6562 193.718 95.5416ZM188.53 90.6666H187.968V92.5416H188.655C189.223 92.5416 189.619 92.4687 189.843 92.3125C190.077 92.1614 190.197 91.9166 190.197 91.5833C190.197 91.2396 190.041 91 189.739 90.875C189.431 90.7396 189.03 90.6666 188.53 90.6666Z" fill="white"/>
<path d="M204.66 98V88.5208H208.473C209.723 88.5208 210.681 88.7604 211.348 89.2291C212.014 89.6875 212.348 90.3489 212.348 91.2083C212.348 91.6146 212.264 91.9896 212.098 92.3333C211.931 92.6823 211.702 92.9687 211.41 93.1875C211.743 93.3541 212.014 93.6146 212.223 93.9583C212.441 94.2916 212.556 94.6875 212.556 95.1458C212.556 95.7187 212.395 96.2187 212.077 96.6458C211.754 97.0625 211.306 97.3958 210.723 97.6458C210.15 97.8854 209.483 98 208.723 98H204.66ZM208.598 90.6666H207.285V92.1458H208.577C208.962 92.1458 209.249 92.0833 209.431 91.9583C209.608 91.8333 209.702 91.6458 209.702 91.3958C209.702 90.9114 209.332 90.6666 208.598 90.6666ZM207.285 95.8541H208.827C209.16 95.8541 209.421 95.7916 209.618 95.6666C209.811 95.5312 209.91 95.3229 209.91 95.0416C209.91 94.7916 209.827 94.6146 209.66 94.5C209.493 94.375 209.212 94.3125 208.827 94.3125H207.285V95.8541Z" fill="white"/>
<path d="M223.656 98V88.5208H226.344V98H223.656Z" fill="white"/>
<path d="M245.882 88.5208L245.507 90.8333H242.715V98H240.048V90.8333H237.09V88.5208H245.882Z" fill="white"/>
<path d="M259.615 98.125C258.417 98.125 257.49 97.875 256.824 97.375C256.157 96.8646 255.771 96.1198 255.678 95.1458L258.157 94.7917C258.167 95.1406 258.313 95.4167 258.594 95.625C258.87 95.8333 259.24 95.9375 259.699 95.9375C260.501 95.9375 260.907 95.724 260.907 95.2917C260.907 95.099 260.792 94.9375 260.574 94.8125C260.35 94.6875 259.98 94.5625 259.469 94.4375C258.355 94.1771 257.542 93.8229 257.032 93.375C256.516 92.9323 256.261 92.3073 256.261 91.5C256.271 90.8906 256.438 90.349 256.761 89.875C257.079 89.4063 257.521 89.0365 258.094 88.7708C258.662 88.5104 259.334 88.375 260.115 88.375C261.074 88.375 261.855 88.6198 262.469 89.1042C263.094 89.5937 263.449 90.2448 263.532 91.0625L261.199 91.4792C261.157 91.2187 261.016 91 260.782 90.8333C260.558 90.6667 260.287 90.5833 259.969 90.5833C259.662 90.5833 259.417 90.6458 259.24 90.7708C259.058 90.8958 258.969 91.0573 258.969 91.25C258.969 91.4479 259.058 91.6146 259.24 91.75C259.417 91.8906 259.766 92.0208 260.282 92.1458C261.001 92.3125 261.605 92.5156 262.094 92.75C262.594 92.974 262.969 93.2656 263.219 93.625C263.48 93.974 263.615 94.4375 263.615 95.0208C263.615 95.6354 263.449 96.1771 263.115 96.6458C262.782 97.1198 262.308 97.4896 261.699 97.75C261.1 98 260.407 98.125 259.615 98.125Z" fill="white"/>
<path d="M274.75 98V88.5208H277.438V92.4583L280.813 88.5208H283.979L279.854 93.2708C280.063 93.3854 280.25 93.5312 280.417 93.7083C280.583 93.8906 280.729 94.0833 280.854 94.2916L281.375 95.1875C281.609 95.6198 281.964 95.8333 282.438 95.8333C282.823 95.8333 283.167 95.7396 283.458 95.5416L284.083 97.6041C283.859 97.7708 283.568 97.9062 283.208 98C282.859 98.1094 282.505 98.1666 282.146 98.1666C280.797 98.1666 279.833 97.6771 279.25 96.6875L278.396 95.1875C278.255 94.9531 278.115 94.7812 277.979 94.6666C277.839 94.5416 277.656 94.4583 277.438 94.4166V98H274.75Z" fill="white"/>
<path d="M293.195 98L297.383 88.5208H299.591L303.633 98H300.924L300.258 96.3125H296.591L295.883 98H293.195ZM297.487 94.1041H299.383L298.466 91.7708L297.487 94.1041Z" fill="white"/>
<path d="M13.5964 88.5208L13.2214 90.8333H10.4297V98H7.76302V90.8333H4.80469V88.5208H13.5964Z" fill="white"/>
<path d="M31.0586 90.7916H26.7669V92.1041H30.7044V94.375H26.7669V95.7083H31.1628L30.9961 98H24.1211V88.5208H31.0586V90.7916Z" fill="white"/>
<path d="M50.0153 88.5208L49.6403 90.8333H46.8486V98H44.182V90.8333H41.2236V88.5208H50.0153Z" fill="white"/>
<path d="M60.54 98V88.5208H63.2275V98H60.54Z" fill="white"/>
<path d="M73.6611 98L77.8486 88.5208H80.057L84.0986 98H81.3903L80.7236 96.3125H77.057L76.3486 98H73.6611ZM77.9528 94.1041H79.8486L78.932 91.7708L77.9528 94.1041Z" fill="white"/>
<path d="M100.634 88.5208H103.196V98H100.821L97.1546 92.8958V98H94.5713V88.5208H96.9671L100.634 93.6041V88.5208Z" fill="white"/>
<path d="M113.63 98L117.817 88.5208H120.026L124.067 98H121.359L120.692 96.3125H117.026L116.317 98H113.63ZM117.922 94.1041H119.817L118.901 91.7708L117.922 94.1041Z" fill="white"/>
<path d="M154.387 88.5208H157.053L153.741 98H149.97L147.199 88.5208H150.033L152.012 95.6041L154.387 88.5208Z" fill="white"/>
<path d="M174.428 90.7916H170.136V92.1041H174.074V94.375H170.136V95.7083H174.532L174.365 98H167.49V88.5208H174.428V90.7916Z" fill="white"/>
<path d="M193.968 95.5416L194.572 97.6041C194.364 97.7708 194.077 97.9062 193.718 98C193.369 98.1094 193.009 98.1666 192.634 98.1666C191.937 98.1666 191.353 98.0416 190.884 97.7916C190.426 97.5312 190.051 97.1614 189.759 96.6875L188.884 95.1875C188.77 95.0208 188.666 94.8958 188.572 94.8125C188.473 94.7187 188.353 94.6562 188.218 94.625V98H185.593V88.5208H188.801C190.259 88.5208 191.332 88.8021 192.03 89.3541C192.739 89.8958 193.093 90.6614 193.093 91.6458C193.093 92.3437 192.89 92.9166 192.489 93.375C192.082 93.8333 191.556 94.1562 190.905 94.3333C191.239 94.4479 191.499 94.6458 191.697 94.9375L191.947 95.3125C192.166 95.6614 192.509 95.8333 192.968 95.8333C193.134 95.8333 193.301 95.8125 193.468 95.7708C193.634 95.7291 193.801 95.6562 193.968 95.5416ZM188.78 90.6666H188.218V92.5416H188.905C189.473 92.5416 189.869 92.4687 190.093 92.3125C190.327 92.1614 190.447 91.9166 190.447 91.5833C190.447 91.2396 190.291 91 189.989 90.875C189.681 90.7396 189.28 90.6666 188.78 90.6666Z" fill="white"/>
<path d="M204.91 98V88.5208H208.723C209.973 88.5208 210.931 88.7604 211.598 89.2291C212.264 89.6875 212.598 90.3489 212.598 91.2083C212.598 91.6146 212.514 91.9896 212.348 92.3333C212.181 92.6823 211.952 92.9687 211.66 93.1875C211.993 93.3541 212.264 93.6146 212.473 93.9583C212.691 94.2916 212.806 94.6875 212.806 95.1458C212.806 95.7187 212.645 96.2187 212.327 96.6458C212.004 97.0625 211.556 97.3958 210.973 97.6458C210.4 97.8854 209.733 98 208.973 98H204.91ZM208.848 90.6666H207.535V92.1458H208.827C209.212 92.1458 209.499 92.0833 209.681 91.9583C209.858 91.8333 209.952 91.6458 209.952 91.3958C209.952 90.9114 209.582 90.6666 208.848 90.6666ZM207.535 95.8541H209.077C209.41 95.8541 209.671 95.7916 209.868 95.6666C210.061 95.5312 210.16 95.3229 210.16 95.0416C210.16 94.7916 210.077 94.6146 209.91 94.5C209.743 94.375 209.462 94.3125 209.077 94.3125H207.535V95.8541Z" fill="white"/>
<path d="M223.907 98V88.5208H226.595V98H223.907Z" fill="white"/>
<path d="M246.132 88.5208L245.757 90.8333H242.966V98H240.299V90.8333H237.341V88.5208H246.132Z" fill="white"/>
<path d="M259.865 98.125C258.667 98.125 257.74 97.875 257.074 97.375C256.407 96.8646 256.021 96.1198 255.928 95.1458L258.407 94.7917C258.417 95.1406 258.563 95.4167 258.844 95.625C259.12 95.8333 259.49 95.9375 259.949 95.9375C260.751 95.9375 261.157 95.724 261.157 95.2917C261.157 95.099 261.042 94.9375 260.824 94.8125C260.6 94.6875 260.23 94.5625 259.719 94.4375C258.605 94.1771 257.792 93.8229 257.282 93.375C256.766 92.9323 256.511 92.3073 256.511 91.5C256.521 90.8906 256.688 90.349 257.011 89.875C257.329 89.4063 257.771 89.0365 258.344 88.7708C258.912 88.5104 259.584 88.375 260.365 88.375C261.324 88.375 262.105 88.6198 262.719 89.1042C263.344 89.5937 263.699 90.2448 263.782 91.0625L261.449 91.4792C261.407 91.2187 261.266 91 261.032 90.8333C260.808 90.6667 260.537 90.5833 260.219 90.5833C259.912 90.5833 259.667 90.6458 259.49 90.7708C259.308 90.8958 259.219 91.0573 259.219 91.25C259.219 91.4479 259.308 91.6146 259.49 91.75C259.667 91.8906 260.016 92.0208 260.532 92.1458C261.251 92.3125 261.855 92.5156 262.344 92.75C262.844 92.974 263.219 93.2656 263.469 93.625C263.73 93.974 263.865 94.4375 263.865 95.0208C263.865 95.6354 263.699 96.1771 263.365 96.6458C263.032 97.1198 262.558 97.4896 261.949 97.75C261.35 98 260.657 98.125 259.865 98.125Z" fill="white"/>
<path d="M275 98V88.5208H277.688V92.4583L281.063 88.5208H284.229L280.104 93.2708C280.313 93.3854 280.5 93.5312 280.667 93.7083C280.833 93.8906 280.979 94.0833 281.104 94.2916L281.625 95.1875C281.859 95.6198 282.214 95.8333 282.688 95.8333C283.073 95.8333 283.417 95.7396 283.708 95.5416L284.333 97.6041C284.109 97.7708 283.818 97.9062 283.458 98C283.109 98.1094 282.755 98.1666 282.396 98.1666C281.047 98.1666 280.083 97.6771 279.5 96.6875L278.646 95.1875C278.505 94.9531 278.365 94.7812 278.229 94.6666C278.089 94.5416 277.906 94.4583 277.688 94.4166V98H275Z" fill="white"/>
<path d="M293.445 98L297.633 88.5208H299.841L303.883 98H301.174L300.508 96.3125H296.841L296.133 98H293.445ZM297.737 94.1041H299.633L298.716 91.7708L297.737 94.1041Z" fill="white"/>
<path d="M62.2881 131.926C61.9548 132.458 61.4964 132.864 60.9131 133.156C60.3298 133.447 59.6735 133.593 58.9548 133.593C58.0798 133.593 57.3298 133.442 56.7048 133.135C56.0798 132.833 55.6006 132.395 55.2673 131.822C54.9443 131.239 54.7881 130.551 54.7881 129.76C54.7881 128.916 54.9652 128.187 55.3298 127.572C55.6891 126.947 56.1943 126.463 56.8506 126.114C57.5016 125.77 58.2568 125.593 59.1214 125.593C59.8714 125.593 60.5016 125.728 61.0173 125.989C61.5433 126.254 61.9652 126.666 62.2881 127.218L60.6423 128.385C60.5016 128.124 60.2881 127.916 59.9964 127.76C59.7048 127.593 59.3818 127.51 59.0381 127.51C58.3975 127.51 57.8975 127.713 57.5381 128.114C57.1891 128.52 57.0173 129.046 57.0173 129.697C57.0173 130.322 57.1735 130.812 57.4964 131.156C57.8141 131.489 58.3089 131.656 58.9756 131.656C59.7256 131.656 60.2933 131.333 60.6839 130.676L62.2881 131.926Z" fill="white"/>
<path d="M74.7301 133.572C73.8968 133.583 73.1729 133.442 72.5635 133.135C71.9489 132.833 71.4854 132.395 71.1676 131.822C70.8447 131.239 70.6885 130.541 70.6885 129.718C70.6885 128.9 70.8604 128.176 71.2093 127.551C71.5687 126.926 72.0635 126.447 72.6885 126.114C73.3135 125.77 74.0426 125.593 74.876 125.593C75.6364 125.593 76.3031 125.754 76.876 126.072C77.4593 126.395 77.902 126.843 78.2093 127.426C78.527 127.999 78.6885 128.666 78.6885 129.426C78.6885 130.249 78.5218 130.968 78.1885 131.593C77.8656 132.208 77.4072 132.692 76.8135 133.051C76.2145 133.4 75.5218 133.572 74.7301 133.572ZM74.6676 131.656C75.2354 131.656 75.6781 131.463 76.001 131.072C76.3343 130.671 76.501 130.135 76.501 129.468C76.501 128.874 76.3395 128.4 76.0218 128.051C75.7145 127.692 75.3031 127.51 74.7926 127.51C74.4176 127.51 74.0843 127.609 73.7926 127.801C73.5114 127.984 73.2926 128.234 73.126 128.551C72.9697 128.874 72.8968 129.249 72.8968 129.676C72.8968 130.301 73.0479 130.791 73.3551 131.135C73.6729 131.484 74.1104 131.656 74.6676 131.656Z" fill="white"/>
<path d="M86.8984 133.468L90.3151 125.697H92.1276L95.4401 133.468H93.2109L92.6693 132.072H89.6693L89.1068 133.468H86.8984ZM90.4193 130.281H91.9609L91.1901 128.364L90.4193 130.281Z" fill="white"/>
<path d="M111.161 131.926C110.828 132.458 110.369 132.864 109.786 133.156C109.203 133.447 108.547 133.593 107.828 133.593C106.953 133.593 106.203 133.442 105.578 133.135C104.953 132.833 104.474 132.395 104.14 131.822C103.817 131.239 103.661 130.551 103.661 129.76C103.661 128.916 103.838 128.187 104.203 127.572C104.562 126.947 105.067 126.463 105.724 126.114C106.375 125.77 107.13 125.593 107.994 125.593C108.744 125.593 109.375 125.728 109.89 125.989C110.416 126.254 110.838 126.666 111.161 127.218L109.515 128.385C109.375 128.124 109.161 127.916 108.869 127.76C108.578 127.593 108.255 127.51 107.911 127.51C107.271 127.51 106.771 127.713 106.411 128.114C106.062 128.52 105.89 129.046 105.89 129.697C105.89 130.322 106.047 130.812 106.369 131.156C106.687 131.489 107.182 131.656 107.849 131.656C108.599 131.656 109.166 131.333 109.557 130.676L111.161 131.926Z" fill="white"/>
<path d="M119.916 133.468V125.697H122.104V128.614H124.895V125.697H127.083V133.468H124.895V130.51H122.104V133.468H119.916Z" fill="white"/>
<path d="M150.994 133.551C150.338 133.551 149.755 133.447 149.244 133.239C148.744 133.031 148.354 132.749 148.078 132.385C147.797 132.025 147.661 131.614 147.661 131.156C147.661 130.671 147.765 130.275 147.974 129.968C148.192 129.65 148.474 129.385 148.807 129.176C148.599 128.942 148.437 128.708 148.328 128.468C148.229 128.218 148.182 127.947 148.182 127.656C148.182 127.27 148.291 126.921 148.515 126.614C148.734 126.312 149.036 126.072 149.411 125.906C149.797 125.728 150.244 125.635 150.744 125.635C151.437 125.635 151.984 125.796 152.39 126.114C152.807 126.437 153.015 126.879 153.015 127.447C153.015 127.77 152.942 128.046 152.807 128.281C152.666 128.504 152.484 128.697 152.265 128.864C152.057 129.02 151.817 129.156 151.557 129.281L153.286 130.864C153.422 130.645 153.536 130.4 153.619 130.135H152.89V128.531H156.14V130.135H155.328C155.203 130.76 154.953 131.322 154.578 131.822C154.786 131.906 155.015 131.942 155.265 131.926C155.432 131.926 155.567 131.916 155.682 131.885C155.791 131.843 155.916 131.791 156.057 131.718L156.494 133.176C156.078 133.478 155.536 133.619 154.869 133.593C154.187 133.577 153.583 133.416 153.057 133.093C152.75 133.249 152.422 133.364 152.078 133.447C151.729 133.515 151.369 133.551 150.994 133.551ZM150.119 127.635C150.119 127.734 150.14 127.833 150.182 127.926C150.234 128.025 150.349 128.156 150.515 128.322C150.75 128.213 150.937 128.093 151.078 127.968C151.229 127.833 151.307 127.676 151.307 127.51C151.307 127.374 151.255 127.275 151.161 127.218C151.062 127.15 150.932 127.114 150.765 127.114C150.557 127.114 150.396 127.166 150.286 127.26C150.172 127.343 150.119 127.468 150.119 127.635ZM149.765 130.906C149.765 131.228 149.896 131.484 150.161 131.676C150.422 131.874 150.771 131.968 151.203 131.968C151.369 131.968 151.536 131.947 151.703 131.906L149.953 130.301C149.828 130.484 149.765 130.687 149.765 130.906Z" fill="white"/>
<path d="M183.201 125.697L182.867 127.614H180.596V133.468H178.409V127.614H175.992V125.697H183.201Z" fill="white"/>
<path d="M198.663 131.447L199.163 133.135C198.996 133.275 198.767 133.385 198.475 133.468C198.184 133.551 197.882 133.593 197.579 133.593C197.007 133.593 196.527 133.489 196.142 133.281C195.767 133.072 195.46 132.775 195.225 132.385L194.517 131.176C194.418 131.025 194.329 130.916 194.246 130.843C194.173 130.775 194.079 130.728 193.954 130.697V133.468H191.809V125.697H194.434C195.642 125.697 196.527 125.926 197.1 126.385C197.668 126.833 197.954 127.458 197.954 128.26C197.954 128.833 197.788 129.301 197.454 129.676C197.132 130.051 196.704 130.317 196.163 130.468C196.439 130.551 196.652 130.718 196.809 130.968L197.017 131.26C197.194 131.541 197.475 131.676 197.85 131.676C197.986 131.676 198.126 131.666 198.267 131.635C198.402 131.609 198.538 131.546 198.663 131.447ZM194.413 127.468H193.954V129.01H194.517C194.986 129.01 195.314 128.947 195.496 128.822C195.689 128.687 195.788 128.484 195.788 128.218C195.788 127.926 195.663 127.734 195.413 127.635C195.163 127.525 194.829 127.468 194.413 127.468Z" fill="white"/>
<path d="M206.571 133.468L209.988 125.697H211.8L215.113 133.468H212.884L212.342 132.072H209.342L208.78 133.468H206.571ZM210.092 130.281H211.634L210.863 128.364L210.092 130.281Z" fill="white"/>
<path d="M223.688 133.468V125.697H225.875V133.468H223.688Z" fill="white"/>
<path d="M240.467 125.697H242.571V133.468H240.634L237.613 129.281V133.468H235.509V125.697H237.467L240.467 129.864V125.697Z" fill="white"/>
<path d="M257.864 127.572H254.364V128.635H257.593V130.51H254.364V131.593H257.968L257.822 133.468H252.197V125.697H257.864V127.572Z" fill="white"/>
<path d="M273.881 131.447L274.381 133.135C274.214 133.275 273.985 133.385 273.693 133.468C273.401 133.551 273.099 133.593 272.797 133.593C272.224 133.593 271.745 133.489 271.36 133.281C270.985 133.072 270.677 132.775 270.443 132.385L269.735 131.176C269.636 131.025 269.547 130.916 269.464 130.843C269.391 130.775 269.297 130.728 269.172 130.697V133.468H267.026V125.697H269.651C270.86 125.697 271.745 125.926 272.318 126.385C272.886 126.833 273.172 127.458 273.172 128.26C273.172 128.833 273.006 129.301 272.672 129.676C272.349 130.051 271.922 130.317 271.381 130.468C271.657 130.551 271.87 130.718 272.026 130.968L272.235 131.26C272.412 131.541 272.693 131.676 273.068 131.676C273.203 131.676 273.344 131.666 273.485 131.635C273.62 131.609 273.756 131.546 273.881 131.447ZM269.631 127.468H269.172V129.01H269.735C270.203 129.01 270.532 128.947 270.714 128.822C270.907 128.687 271.006 128.484 271.006 128.218C271.006 127.926 270.881 127.734 270.631 127.635C270.381 127.525 270.047 127.468 269.631 127.468Z" fill="white"/>
<path d="M61.8779 131.926C61.5446 132.458 61.0863 132.864 60.5029 133.156C59.9196 133.447 59.2633 133.593 58.5446 133.593C57.6696 133.593 56.9196 133.442 56.2946 133.135C55.6696 132.833 55.1904 132.395 54.8571 131.822C54.5342 131.239 54.3779 130.551 54.3779 129.76C54.3779 128.916 54.555 128.187 54.9196 127.572C55.279 126.947 55.7842 126.463 56.4404 126.114C57.0915 125.77 57.8467 125.593 58.7113 125.593C59.4613 125.593 60.0915 125.728 60.6071 125.989C61.1331 126.254 61.555 126.666 61.8779 127.218L60.2321 128.385C60.0915 128.124 59.8779 127.916 59.5863 127.76C59.2946 127.593 58.9717 127.51 58.6279 127.51C57.9873 127.51 57.4873 127.713 57.1279 128.114C56.779 128.52 56.6071 129.046 56.6071 129.697C56.6071 130.322 56.7633 130.812 57.0863 131.156C57.404 131.489 57.8988 131.656 58.5654 131.656C59.3154 131.656 59.8831 131.333 60.2738 130.676L61.8779 131.926Z" fill="white"/>
<path d="M74.32 133.572C73.4867 133.583 72.7627 133.442 72.1533 133.135C71.5387 132.833 71.0752 132.395 70.7575 131.822C70.4346 131.239 70.2783 130.541 70.2783 129.718C70.2783 128.9 70.4502 128.176 70.7992 127.551C71.1585 126.926 71.6533 126.447 72.2783 126.114C72.9033 125.77 73.6325 125.593 74.4658 125.593C75.2262 125.593 75.8929 125.754 76.4658 126.072C77.0492 126.395 77.4919 126.843 77.7992 127.426C78.1169 127.999 78.2783 128.666 78.2783 129.426C78.2783 130.249 78.1117 130.968 77.7783 131.593C77.4554 132.208 76.9971 132.692 76.4033 133.051C75.8044 133.4 75.1117 133.572 74.32 133.572ZM74.2575 131.656C74.8252 131.656 75.2679 131.463 75.5908 131.072C75.9242 130.671 76.0908 130.135 76.0908 129.468C76.0908 128.874 75.9294 128.4 75.6117 128.051C75.3044 127.692 74.8929 127.51 74.3825 127.51C74.0075 127.51 73.6742 127.609 73.3825 127.801C73.1012 127.984 72.8825 128.234 72.7158 128.551C72.5596 128.874 72.4867 129.249 72.4867 129.676C72.4867 130.301 72.6377 130.791 72.945 131.135C73.2627 131.484 73.7002 131.656 74.2575 131.656Z" fill="white"/>
<path d="M86.4883 133.468L89.9049 125.697H91.7174L95.0299 133.468H92.8008L92.2591 132.072H89.2591L88.6966 133.468H86.4883ZM90.0091 130.281H91.5508L90.7799 128.364L90.0091 130.281Z" fill="white"/>
<path d="M110.751 131.926C110.418 132.458 109.959 132.864 109.376 133.156C108.793 133.447 108.136 133.593 107.418 133.593C106.543 133.593 105.793 133.442 105.168 133.135C104.543 132.833 104.063 132.395 103.73 131.822C103.407 131.239 103.251 130.551 103.251 129.76C103.251 128.916 103.428 128.187 103.793 127.572C104.152 126.947 104.657 126.463 105.313 126.114C105.965 125.77 106.72 125.593 107.584 125.593C108.334 125.593 108.965 125.728 109.48 125.989C110.006 126.254 110.428 126.666 110.751 127.218L109.105 128.385C108.965 128.124 108.751 127.916 108.459 127.76C108.168 127.593 107.845 127.51 107.501 127.51C106.86 127.51 106.36 127.713 106.001 128.114C105.652 128.52 105.48 129.046 105.48 129.697C105.48 130.322 105.636 130.812 105.959 131.156C106.277 131.489 106.772 131.656 107.438 131.656C108.188 131.656 108.756 131.333 109.147 130.676L110.751 131.926Z" fill="white"/>
<path d="M119.506 133.468V125.697H121.693V128.614H124.485V125.697H126.673V133.468H124.485V130.51H121.693V133.468H119.506Z" fill="white"/>
<path d="M150.584 133.551C149.928 133.551 149.345 133.447 148.834 133.239C148.334 133.031 147.944 132.749 147.668 132.385C147.386 132.025 147.251 131.614 147.251 131.156C147.251 130.671 147.355 130.275 147.563 129.968C147.782 129.65 148.063 129.385 148.397 129.176C148.188 128.942 148.027 128.708 147.918 128.468C147.819 128.218 147.772 127.947 147.772 127.656C147.772 127.27 147.881 126.921 148.105 126.614C148.324 126.312 148.626 126.072 149.001 125.906C149.386 125.728 149.834 125.635 150.334 125.635C151.027 125.635 151.574 125.796 151.98 126.114C152.397 126.437 152.605 126.879 152.605 127.447C152.605 127.77 152.532 128.046 152.397 128.281C152.256 128.504 152.074 128.697 151.855 128.864C151.647 129.02 151.407 129.156 151.147 129.281L152.876 130.864C153.011 130.645 153.126 130.4 153.209 130.135H152.48V128.531H155.73V130.135H154.918C154.793 130.76 154.543 131.322 154.168 131.822C154.376 131.906 154.605 131.942 154.855 131.926C155.022 131.926 155.157 131.916 155.272 131.885C155.381 131.843 155.506 131.791 155.647 131.718L156.084 133.176C155.668 133.478 155.126 133.619 154.459 133.593C153.777 133.577 153.173 133.416 152.647 133.093C152.34 133.249 152.011 133.364 151.668 133.447C151.319 133.515 150.959 133.551 150.584 133.551ZM149.709 127.635C149.709 127.734 149.73 127.833 149.772 127.926C149.824 128.025 149.938 128.156 150.105 128.322C150.34 128.213 150.527 128.093 150.668 127.968C150.819 127.833 150.897 127.676 150.897 127.51C150.897 127.374 150.845 127.275 150.751 127.218C150.652 127.15 150.522 127.114 150.355 127.114C150.147 127.114 149.985 127.166 149.876 127.26C149.761 127.343 149.709 127.468 149.709 127.635ZM149.355 130.906C149.355 131.228 149.485 131.484 149.751 131.676C150.011 131.874 150.36 131.968 150.793 131.968C150.959 131.968 151.126 131.947 151.293 131.906L149.543 130.301C149.418 130.484 149.355 130.687 149.355 130.906Z" fill="white"/>
<path d="M182.79 125.697L182.457 127.614H180.186V133.468H177.999V127.614H175.582V125.697H182.79Z" fill="white"/>
<path d="M198.253 131.447L198.753 133.135C198.586 133.275 198.357 133.385 198.065 133.468C197.773 133.551 197.471 133.593 197.169 133.593C196.596 133.593 196.117 133.489 195.732 133.281C195.357 133.072 195.049 132.775 194.815 132.385L194.107 131.176C194.008 131.025 193.919 130.916 193.836 130.843C193.763 130.775 193.669 130.728 193.544 130.697V133.468H191.398V125.697H194.023C195.232 125.697 196.117 125.926 196.69 126.385C197.258 126.833 197.544 127.458 197.544 128.26C197.544 128.833 197.378 129.301 197.044 129.676C196.721 130.051 196.294 130.317 195.753 130.468C196.029 130.551 196.242 130.718 196.398 130.968L196.607 131.26C196.784 131.541 197.065 131.676 197.44 131.676C197.576 131.676 197.716 131.666 197.857 131.635C197.992 131.609 198.128 131.546 198.253 131.447ZM194.003 127.468H193.544V129.01H194.107C194.576 129.01 194.904 128.947 195.086 128.822C195.279 128.687 195.378 128.484 195.378 128.218C195.378 127.926 195.253 127.734 195.003 127.635C194.753 127.525 194.419 127.468 194.003 127.468Z" fill="white"/>
<path d="M206.161 133.468L209.578 125.697H211.39L214.703 133.468H212.474L211.932 132.072H208.932L208.369 133.468H206.161ZM209.682 130.281H211.224L210.453 128.364L209.682 130.281Z" fill="white"/>
<path d="M223.277 133.468V125.697H225.465V133.468H223.277Z" fill="white"/>
<path d="M240.058 125.697H242.162V133.468H240.225L237.204 129.281V133.468H235.1V125.697H237.058L240.058 129.864V125.697Z" fill="white"/>
<path d="M257.454 127.572H253.954V128.635H257.183V130.51H253.954V131.593H257.558L257.412 133.468H251.787V125.697H257.454V127.572Z" fill="white"/>
<path d="M273.471 131.447L273.971 133.135C273.805 133.275 273.576 133.385 273.284 133.468C272.992 133.551 272.69 133.593 272.388 133.593C271.815 133.593 271.336 133.489 270.951 133.281C270.576 133.072 270.268 132.775 270.034 132.385L269.326 131.176C269.227 131.025 269.138 130.916 269.055 130.843C268.982 130.775 268.888 130.728 268.763 130.697V133.468H266.617V125.697H269.242C270.451 125.697 271.336 125.926 271.909 126.385C272.477 126.833 272.763 127.458 272.763 128.26C272.763 128.833 272.596 129.301 272.263 129.676C271.94 130.051 271.513 130.317 270.971 130.468C271.247 130.551 271.461 130.718 271.617 130.968L271.826 131.26C272.003 131.541 272.284 131.676 272.659 131.676C272.794 131.676 272.935 131.666 273.076 131.635C273.211 131.609 273.346 131.546 273.471 131.447ZM269.221 127.468H268.763V129.01H269.326C269.794 129.01 270.122 128.947 270.305 128.822C270.497 128.687 270.596 128.484 270.596 128.218C270.596 127.926 270.471 127.734 270.221 127.635C269.971 127.525 269.638 127.468 269.221 127.468Z" fill="white"/>
<path d="M62.083 131.926C61.7497 132.458 61.2913 132.864 60.708 133.156C60.1247 133.447 59.4684 133.593 58.7497 133.593C57.8747 133.593 57.1247 133.442 56.4997 133.135C55.8747 132.833 55.3955 132.395 55.0622 131.822C54.7393 131.239 54.583 130.551 54.583 129.76C54.583 128.916 54.7601 128.187 55.1247 127.572C55.484 126.947 55.9893 126.463 56.6455 126.114C57.2965 125.77 58.0518 125.593 58.9163 125.593C59.6663 125.593 60.2965 125.728 60.8122 125.989C61.3382 126.254 61.7601 126.666 62.083 127.218L60.4372 128.385C60.2965 128.124 60.083 127.916 59.7913 127.76C59.4997 127.593 59.1768 127.51 58.833 127.51C58.1924 127.51 57.6924 127.713 57.333 128.114C56.984 128.52 56.8122 129.046 56.8122 129.697C56.8122 130.322 56.9684 130.812 57.2913 131.156C57.609 131.489 58.1038 131.656 58.7705 131.656C59.5205 131.656 60.0882 131.333 60.4788 130.676L62.083 131.926Z" fill="white"/>
<path d="M74.5251 133.572C73.6917 133.583 72.9678 133.442 72.3584 133.135C71.7438 132.833 71.2803 132.395 70.9626 131.822C70.6396 131.239 70.4834 130.541 70.4834 129.718C70.4834 128.9 70.6553 128.176 71.0042 127.551C71.3636 126.926 71.8584 126.447 72.4834 126.114C73.1084 125.77 73.8376 125.593 74.6709 125.593C75.4313 125.593 76.098 125.754 76.6709 126.072C77.2542 126.395 77.6969 126.843 78.0042 127.426C78.3219 127.999 78.4834 128.666 78.4834 129.426C78.4834 130.249 78.3167 130.968 77.9834 131.593C77.6605 132.208 77.2021 132.692 76.6084 133.051C76.0094 133.4 75.3167 133.572 74.5251 133.572ZM74.4626 131.656C75.0303 131.656 75.473 131.463 75.7959 131.072C76.1292 130.671 76.2959 130.135 76.2959 129.468C76.2959 128.874 76.1344 128.4 75.8167 128.051C75.5094 127.692 75.098 127.51 74.5876 127.51C74.2126 127.51 73.8792 127.609 73.5876 127.801C73.3063 127.984 73.0876 128.234 72.9209 128.551C72.7646 128.874 72.6917 129.249 72.6917 129.676C72.6917 130.301 72.8428 130.791 73.1501 131.135C73.4678 131.484 73.9053 131.656 74.4626 131.656Z" fill="white"/>
<path d="M86.6934 133.468L90.11 125.697H91.9225L95.235 133.468H93.0059L92.4642 132.072H89.4642L88.9017 133.468H86.6934ZM90.2142 130.281H91.7559L90.985 128.364L90.2142 130.281Z" fill="white"/>
<path d="M110.956 131.926C110.623 132.458 110.164 132.864 109.581 133.156C108.998 133.447 108.341 133.593 107.623 133.593C106.748 133.593 105.998 133.442 105.373 133.135C104.748 132.833 104.269 132.395 103.935 131.822C103.612 131.239 103.456 130.551 103.456 129.76C103.456 128.916 103.633 128.187 103.998 127.572C104.357 126.947 104.862 126.463 105.519 126.114C106.17 125.77 106.925 125.593 107.789 125.593C108.539 125.593 109.17 125.728 109.685 125.989C110.211 126.254 110.633 126.666 110.956 127.218L109.31 128.385C109.17 128.124 108.956 127.916 108.664 127.76C108.373 127.593 108.05 127.51 107.706 127.51C107.065 127.51 106.565 127.713 106.206 128.114C105.857 128.52 105.685 129.046 105.685 129.697C105.685 130.322 105.841 130.812 106.164 131.156C106.482 131.489 106.977 131.656 107.644 131.656C108.394 131.656 108.961 131.333 109.352 130.676L110.956 131.926Z" fill="white"/>
<path d="M119.711 133.468V125.697H121.898V128.614H124.69V125.697H126.878V133.468H124.69V130.51H121.898V133.468H119.711Z" fill="white"/>
<path d="M150.789 133.551C150.133 133.551 149.55 133.447 149.039 133.239C148.539 133.031 148.149 132.749 147.873 132.385C147.591 132.025 147.456 131.614 147.456 131.156C147.456 130.671 147.56 130.275 147.769 129.968C147.987 129.65 148.269 129.385 148.602 129.176C148.394 128.942 148.232 128.708 148.123 128.468C148.024 128.218 147.977 127.947 147.977 127.656C147.977 127.27 148.086 126.921 148.31 126.614C148.529 126.312 148.831 126.072 149.206 125.906C149.591 125.728 150.039 125.635 150.539 125.635C151.232 125.635 151.779 125.796 152.185 126.114C152.602 126.437 152.81 126.879 152.81 127.447C152.81 127.77 152.737 128.046 152.602 128.281C152.461 128.504 152.279 128.697 152.06 128.864C151.852 129.02 151.612 129.156 151.352 129.281L153.081 130.864C153.216 130.645 153.331 130.4 153.414 130.135H152.685V128.531H155.935V130.135H155.123C154.998 130.76 154.748 131.322 154.373 131.822C154.581 131.906 154.81 131.942 155.06 131.926C155.227 131.926 155.362 131.916 155.477 131.885C155.586 131.843 155.711 131.791 155.852 131.718L156.289 133.176C155.873 133.478 155.331 133.619 154.664 133.593C153.982 133.577 153.378 133.416 152.852 133.093C152.545 133.249 152.216 133.364 151.873 133.447C151.524 133.515 151.164 133.551 150.789 133.551ZM149.914 127.635C149.914 127.734 149.935 127.833 149.977 127.926C150.029 128.025 150.144 128.156 150.31 128.322C150.545 128.213 150.732 128.093 150.873 127.968C151.024 127.833 151.102 127.676 151.102 127.51C151.102 127.374 151.05 127.275 150.956 127.218C150.857 127.15 150.727 127.114 150.56 127.114C150.352 127.114 150.19 127.166 150.081 127.26C149.966 127.343 149.914 127.468 149.914 127.635ZM149.56 130.906C149.56 131.228 149.69 131.484 149.956 131.676C150.216 131.874 150.565 131.968 150.998 131.968C151.164 131.968 151.331 131.947 151.498 131.906L149.748 130.301C149.623 130.484 149.56 130.687 149.56 130.906Z" fill="white"/>
<path d="M182.995 125.697L182.662 127.614H180.391V133.468H178.204V127.614H175.787V125.697H182.995Z" fill="white"/>
<path d="M198.458 131.447L198.958 133.135C198.791 133.275 198.562 133.385 198.27 133.468C197.979 133.551 197.676 133.593 197.374 133.593C196.801 133.593 196.322 133.489 195.937 133.281C195.562 133.072 195.255 132.775 195.02 132.385L194.312 131.176C194.213 131.025 194.124 130.916 194.041 130.843C193.968 130.775 193.874 130.728 193.749 130.697V133.468H191.604V125.697H194.229C195.437 125.697 196.322 125.926 196.895 126.385C197.463 126.833 197.749 127.458 197.749 128.26C197.749 128.833 197.583 129.301 197.249 129.676C196.926 130.051 196.499 130.317 195.958 130.468C196.234 130.551 196.447 130.718 196.604 130.968L196.812 131.26C196.989 131.541 197.27 131.676 197.645 131.676C197.781 131.676 197.921 131.666 198.062 131.635C198.197 131.609 198.333 131.546 198.458 131.447ZM194.208 127.468H193.749V129.01H194.312C194.781 129.01 195.109 128.947 195.291 128.822C195.484 128.687 195.583 128.484 195.583 128.218C195.583 127.926 195.458 127.734 195.208 127.635C194.958 127.525 194.624 127.468 194.208 127.468Z" fill="white"/>
<path d="M206.366 133.468L209.783 125.697H211.595L214.908 133.468H212.679L212.137 132.072H209.137L208.575 133.468H206.366ZM209.887 130.281H211.429L210.658 128.364L209.887 130.281Z" fill="white"/>
<path d="M223.482 133.468V125.697H225.67V133.468H223.482Z" fill="white"/>
<path d="M240.263 125.697H242.367V133.468H240.43L237.409 129.281V133.468H235.305V125.697H237.263L240.263 129.864V125.697Z" fill="white"/>
<path d="M257.659 127.572H254.159V128.635H257.388V130.51H254.159V131.593H257.763L257.617 133.468H251.992V125.697H257.659V127.572Z" fill="white"/>
<path d="M273.675 131.447L274.175 133.135C274.009 133.275 273.78 133.385 273.488 133.468C273.196 133.551 272.894 133.593 272.592 133.593C272.019 133.593 271.54 133.489 271.155 133.281C270.78 133.072 270.472 132.775 270.238 132.385L269.53 131.176C269.431 131.025 269.342 130.916 269.259 130.843C269.186 130.775 269.092 130.728 268.967 130.697V133.468H266.821V125.697H269.446C270.655 125.697 271.54 125.926 272.113 126.385C272.681 126.833 272.967 127.458 272.967 128.26C272.967 128.833 272.8 129.301 272.467 129.676C272.144 130.051 271.717 130.317 271.175 130.468C271.451 130.551 271.665 130.718 271.821 130.968L272.03 131.26C272.207 131.541 272.488 131.676 272.863 131.676C272.998 131.676 273.139 131.666 273.28 131.635C273.415 131.609 273.55 131.546 273.675 131.447ZM269.425 127.468H268.967V129.01H269.53C269.998 129.01 270.326 128.947 270.509 128.822C270.701 128.687 270.8 128.484 270.8 128.218C270.8 127.926 270.675 127.734 270.425 127.635C270.175 127.525 269.842 127.468 269.425 127.468Z" fill="white"/>
</g>
<defs>
<filter id="filter0_d_2167_1763" x="0" y="0" width="327" height="212" filterUnits="userSpaceOnUse" color-interpolation-filters="sRGB">
<feFlood flood-opacity="0" result="BackgroundImageFix"/>
<feColorMatrix in="SourceAlpha" type="matrix" values="0 0 0 0 0 0 0 0 0 0 0 0 0 0 0 0 0 0 127 0" result="hardAlpha"/>
<feOffset dy="4"/>
<feGaussianBlur stdDeviation="2"/>
<feComposite in2="hardAlpha" operator="out"/>
<feColorMatrix type="matrix" values="0 0 0 0 0 0 0 0 0 0 0 0 0 0 0 0 0 0 0.25 0"/>
<feBlend mode="normal" in2="BackgroundImageFix" result="effect1_dropShadow_2167_1763"/>
<feBlend mode="normal" in="SourceGraphic" in2="effect1_dropShadow_2167_1763" result="shape"/>
</filter>
<clipPath id="clip0_2167_1763">
<rect width="319" height="204" fill="white" transform="translate(4)"/>
</clipPath>
</defs>
</svg>
