<svg width="147" height="61" viewBox="0 0 147 61" fill="none" xmlns="http://www.w3.org/2000/svg">
<path d="M19.1 58.14C15.78 58.14 13.02 57.48 10.82 56.16C8.62 54.84 6.98 53.08 5.9 50.88C4.82 48.68 4.28 46.26 4.28 43.62C4.28 43.06 4.3 42.5 4.34 41.94C4.42 41.34 4.5 40.74 4.58 40.14C3.22 39.1 2.14 37.82 1.34 36.3C0.58 34.78 0.2 33.02 0.2 31.02C0.2 28.14 1.02 25.52 2.66 23.16C4.3 20.8 6.44 18.8 9.08 17.16C9.04 16.88 9 16.62 8.96 16.38C8.96 16.1 8.96 15.82 8.96 15.54C8.96 15.38 8.96 15.24 8.96 15.12C8.96 14.96 8.98 14.8 9.02 14.64C9.34 11.88 10.18 9.42 11.54 7.26C12.94 5.06 15.04 3.34 17.84 2.1C20.68 0.859998 24.4 0.239999 29 0.239999C29.8 0.239999 30.64 0.259999 31.52 0.299998C32.4 0.339998 33.3 0.399997 34.22 0.479996C36.3 0.679998 38.76 1.2 41.6 2.04C44.48 2.88 47.54 3.84 50.78 4.92C54.06 6 57.32 7 60.56 7.92C61.52 6.68 62.5 5.64 63.5 4.8C64.54 3.96 65.62 3.36 66.74 3H66.92C67.2 3 67.34 3.14 67.34 3.42C67.34 3.66 67.24 3.8 67.04 3.84C66.04 4.16 65.08 4.7 64.16 5.46C63.28 6.18 62.4 7.08 61.52 8.16C63.88 8.8 66.16 9.32 68.36 9.72C70.56 10.12 72.58 10.32 74.42 10.32C75.82 10.32 77.08 10.2 78.2 9.96C79.36 9.68 80.38 9.24 81.26 8.64C83.26 7.28 84.44 5.26 84.8 2.58C84.8 2.3 84.94 2.16 85.22 2.16C85.34 2.16 85.46 2.22 85.58 2.34C85.7 2.42 85.74 2.54 85.7 2.7C85.54 4.14 85.12 5.42 84.44 6.54C83.8 7.62 82.98 8.52 81.98 9.24C80.62 10.24 79.02 10.96 77.18 11.4C75.34 11.84 73.34 12.06 71.18 12.06C69.46 12.06 67.62 11.94 65.66 11.7C63.74 11.42 61.76 11.08 59.72 10.68C59.4 11.2 59.06 11.74 58.7 12.3C58.34 12.86 58 13.44 57.68 14.04C56.68 15.84 55.82 17.98 55.1 20.46C54.38 22.9 53.64 25.52 52.88 28.32C52.12 31.08 51.22 33.88 50.18 36.72C49.14 39.52 47.82 42.2 46.22 44.76C44.66 47.32 42.68 49.6 40.28 51.6C37.88 53.64 34.94 55.24 31.46 56.4C28.02 57.56 23.9 58.14 19.1 58.14ZM19.1 57.24C22.34 57.24 25.28 56.64 27.92 55.44C30.6 54.28 33.02 52.68 35.18 50.64C37.38 48.6 39.38 46.26 41.18 43.62C43.02 40.98 44.7 38.18 46.22 35.22C47.78 32.26 49.24 29.3 50.6 26.34C52 23.38 53.36 20.54 54.68 17.82C56.04 15.1 57.4 12.66 58.76 10.5C55.4 9.78 51.98 8.94 48.5 7.98C45.02 6.98 41.68 6.06 38.48 5.22C36.88 4.78 35.28 4.48 33.68 4.32C32.08 4.12 30.52 4.02 29 4.02C25.64 4.02 22.54 4.46 19.7 5.34C16.9 6.18 14.62 7.4 12.86 9C11.1 10.56 10.12 12.42 9.92 14.58C9.92 14.74 9.9 14.88 9.86 15C9.86 15.12 9.86 15.26 9.86 15.42C9.86 15.58 9.86 15.78 9.86 16.02C9.9 16.22 9.94 16.42 9.98 16.62C11.78 15.58 13.72 14.66 15.8 13.86C17.92 13.02 20.1 12.6 22.34 12.6H22.4C22.72 12.6 22.88 12.76 22.88 13.08C22.88 13.32 22.74 13.46 22.46 13.5C20.22 13.78 18.04 14.26 15.92 14.94C13.84 15.62 11.92 16.48 10.16 17.52C10.4 18.64 10.84 19.76 11.48 20.88C12.16 21.96 13.02 22.92 14.06 23.76C15.62 22.4 17.34 21.18 19.22 20.1C21.14 18.98 23.22 18.04 25.46 17.28C28.46 16.28 31.14 15.78 33.5 15.78C36.94 15.78 39.5 16.68 41.18 18.48C42.9 20.24 43.76 22.38 43.76 24.9C43.76 26.94 43.2 29.06 42.08 31.26C41 33.46 39.34 35.5 37.1 37.38C34.9 39.26 32.16 40.8 28.88 42C25.6 43.16 21.76 43.74 17.36 43.74C15.4 43.74 13.5 43.56 11.66 43.2C9.86 42.8 8.2 42.22 6.68 41.46C6.64 41.82 6.6 42.18 6.56 42.54C6.56 42.9 6.56 43.26 6.56 43.62C6.56 46.1 7 48.38 7.88 50.46C8.8 52.5 10.18 54.14 12.02 55.38C13.9 56.62 16.26 57.24 19.1 57.24ZM18.32 42.9C22.2 42.9 25.6 42.34 28.52 41.22C31.48 40.1 33.96 38.66 35.96 36.9C37.96 35.1 39.46 33.18 40.46 31.14C41.46 29.06 41.96 27.06 41.96 25.14C41.96 22.82 41.22 20.86 39.74 19.26C38.26 17.66 35.98 16.86 32.9 16.86C30.82 16.86 28.44 17.3 25.76 18.18C23.68 18.86 21.74 19.76 19.94 20.88C18.18 21.96 16.58 23.18 15.14 24.54C16.06 25.1 17.1 25.56 18.26 25.92C19.42 26.24 20.7 26.4 22.1 26.4C22.9 26.4 23.74 26.36 24.62 26.28C25.5 26.16 26.42 25.96 27.38 25.68H27.56C27.8 25.68 27.92 25.82 27.92 26.1C27.92 26.34 27.82 26.48 27.62 26.52C26.62 26.8 25.66 27 24.74 27.12C23.82 27.24 22.94 27.3 22.1 27.3C20.54 27.3 19.12 27.12 17.84 26.76C16.6 26.36 15.48 25.84 14.48 25.2C12.36 27.4 10.66 29.82 9.38 32.46C8.1 35.06 7.26 37.66 6.86 40.26C8.42 41.14 10.18 41.8 12.14 42.24C14.14 42.68 16.2 42.9 18.32 42.9ZM4.88 38.88C5.44 36.36 6.42 33.84 7.82 31.32C9.26 28.8 11.1 26.5 13.34 24.42C12.3 23.54 11.44 22.54 10.76 21.42C10.08 20.3 9.58 19.18 9.26 18.06C6.82 19.66 4.84 21.56 3.32 23.76C1.84 25.96 1.1 28.36 1.1 30.96C1.1 32.64 1.44 34.14 2.12 35.46C2.8 36.78 3.72 37.92 4.88 38.88ZM78.2633 60.48C77.5433 60.48 76.7833 60.42 75.9833 60.3C72.7433 59.82 69.9433 58.58 67.5833 56.58C65.2633 54.58 63.4633 52.12 62.1833 49.2C60.9433 46.24 60.3233 43.12 60.3233 39.84C60.3233 37.16 60.7633 34.56 61.6433 32.04C62.4833 29.6 63.5633 27.22 64.8833 24.9C66.2033 22.58 67.8833 20.4 69.9233 18.36C71.9633 16.32 74.4633 14.5 77.4233 12.9C80.4233 11.3 84.0233 10 88.2233 9C92.4233 7.96 97.3633 7.32 103.043 7.08C103.603 7.04 104.263 7.02 105.023 7.02C105.823 7.02 106.623 7.02 107.423 7.02C108.543 7.02 109.623 7.02 110.663 7.02C111.703 7.02 112.523 7.04 113.123 7.08C113.443 7.08 113.603 7.24 113.603 7.56C113.603 7.84 113.443 7.98 113.123 7.98C111.683 8.02 110.523 8.52 109.643 9.48C108.763 10.44 107.883 11.68 107.003 13.2C106.523 14.2 106.123 15.34 105.803 16.62C107.843 17.26 109.743 18.28 111.503 19.68C113.263 21.04 114.763 22.62 116.003 24.42C117.643 21.62 119.343 18.9 121.103 16.26C122.903 13.62 124.743 11.22 126.623 9.06C128.863 6.5 131.083 4.66 133.283 3.54C135.483 2.38 137.463 1.8 139.223 1.8C141.263 1.8 142.903 2.46 144.143 3.78C145.423 5.06 146.063 6.8 146.063 9C146.063 11.32 145.183 14.04 143.423 17.16C141.703 20.28 138.803 23.54 134.723 26.94C132.683 28.62 130.363 30.12 127.763 31.44C125.203 32.72 122.523 33.8 119.723 34.68V35.58C119.723 38.26 119.323 40.34 118.523 41.82C117.723 43.3 116.743 44.32 115.583 44.88C114.463 45.44 113.403 45.72 112.403 45.72C111.643 45.72 110.983 45.62 110.423 45.42C109.903 45.18 109.603 44.92 109.523 44.64V44.52C109.523 44.32 109.623 44.22 109.823 44.22C110.023 44.18 110.143 44.26 110.183 44.46C110.223 44.5 110.443 44.6 110.843 44.76C111.243 44.92 111.763 45 112.403 45C112.723 45 113.063 44.98 113.423 44.94C113.783 44.86 114.163 44.74 114.563 44.58C115.683 44.14 116.703 43.26 117.623 41.94C118.543 40.62 119.003 38.5 119.003 35.58V34.92C116.603 35.64 114.123 36.18 111.563 36.54C111.163 37.14 110.763 37.74 110.363 38.34C109.963 38.9 109.543 39.46 109.103 40.02C107.263 42.62 105.403 44.98 103.523 47.1C101.643 49.22 99.8033 50.88 98.0033 52.08C96.2433 53.32 94.5833 53.9 93.0233 53.82C92.7033 53.82 92.5433 53.7 92.5433 53.46C92.5433 53.3 92.6233 53.16 92.7833 53.04C94.3433 51.96 95.6033 50.56 96.5633 48.84C97.5633 47.12 98.3433 45.2 98.9033 43.08C99.5033 40.92 99.9633 38.72 100.283 36.48C97.6833 36.08 95.2633 35.42 93.0233 34.5C90.7833 33.54 89.0033 32.3 87.6833 30.78C86.3633 29.26 85.7633 27.48 85.8833 25.44C86.0433 23.16 86.7633 21.3 88.0433 19.86C89.3233 18.42 90.9233 17.36 92.8433 16.68C94.8033 16 96.8433 15.66 98.9633 15.66C99.7633 15.66 100.543 15.7 101.303 15.78C102.063 15.86 102.823 15.98 103.583 16.14C103.783 15.54 104.023 15.02 104.303 14.58C104.903 13.54 105.743 12.38 106.823 11.1C107.903 9.78 109.103 8.84 110.423 8.28C109.463 8.2 108.483 8.14 107.483 8.1C106.523 8.06 105.543 8.04 104.543 8.04C100.183 8.04 95.8633 8.5 91.5833 9.42C87.3433 10.3 83.3433 11.72 79.5833 13.68C75.8633 15.6 72.5833 18.12 69.7433 21.24C66.9033 24.36 64.7233 28.12 63.2033 32.52C62.2833 35.2 61.8233 37.88 61.8233 40.56C61.8233 43.6 62.3833 46.48 63.5033 49.2C64.6633 51.92 66.3033 54.2 68.4233 56.04C70.5433 57.88 73.1033 59.02 76.1033 59.46C76.4633 59.5 76.8233 59.52 77.1833 59.52C77.5433 59.56 77.9033 59.58 78.2633 59.58C80.8233 59.58 83.1833 58.98 85.3433 57.78C87.5033 56.58 88.9233 54.78 89.6033 52.38C89.6433 52.18 89.7833 52.08 90.0233 52.08C90.3833 52.08 90.5233 52.26 90.4433 52.62C89.9633 54.38 89.1033 55.84 87.8633 57C86.6233 58.16 85.1633 59.02 83.4833 59.58C81.8033 60.18 80.0633 60.48 78.2633 60.48ZM119.663 33.9C124.623 32.3 129.063 29.94 132.983 26.82C135.783 24.58 138.063 22.32 139.823 20.04C141.623 17.76 142.943 15.62 143.783 13.62C144.663 11.58 145.103 9.8 145.103 8.28C145.103 6.96 144.783 5.92 144.143 5.16C143.503 4.36 142.583 3.96 141.383 3.96C140.103 3.96 138.503 4.48 136.583 5.52C134.703 6.56 132.543 8.3 130.103 10.74C127.983 12.9 125.883 15.42 123.803 18.3C121.723 21.18 119.683 24.14 117.683 27.18C118.203 28.22 118.623 29.32 118.943 30.48C119.303 31.6 119.543 32.74 119.663 33.9ZM100.403 35.7C100.723 33.54 100.963 31.42 101.123 29.34C101.323 27.22 101.543 25.32 101.783 23.64C101.983 22.36 102.203 21.14 102.443 19.98C102.683 18.82 102.983 17.74 103.343 16.74C102.223 16.5 101.043 16.38 99.8033 16.38C97.9233 16.38 96.1033 16.7 94.3433 17.34C92.6233 17.94 91.2033 18.92 90.0833 20.28C88.9633 21.6 88.3233 23.32 88.1633 25.44C88.0433 27.28 88.5033 28.9 89.5433 30.3C90.5833 31.7 92.0433 32.86 93.9233 33.78C95.8033 34.66 97.9633 35.3 100.403 35.7ZM104.483 36.12C105.283 36.16 106.083 36.18 106.883 36.18C107.723 36.14 108.543 36.08 109.343 36C110.383 34.28 111.403 32.5 112.403 30.66C113.443 28.78 114.523 26.92 115.643 25.08C114.403 23.32 112.923 21.76 111.203 20.4C109.523 19 107.683 17.98 105.683 17.34C105.323 19.26 105.103 21.36 105.023 23.64C104.943 25.92 104.883 28.16 104.843 30.36C104.843 32.52 104.723 34.44 104.483 36.12ZM112.103 35.7C113.263 35.5 114.403 35.28 115.523 35.04C116.683 34.8 117.823 34.5 118.943 34.14C118.783 32.02 118.203 29.94 117.203 27.9L112.103 35.7ZM97.4033 51C99.1633 50.36 101.003 48.74 102.923 46.14C104.843 43.5 106.843 40.4 108.923 36.84C108.163 36.88 107.403 36.92 106.643 36.96C105.883 36.96 105.143 36.94 104.423 36.9C104.023 39.46 103.303 41.96 102.263 44.4C101.223 46.84 99.6033 49.04 97.4033 51Z" fill="white"/>
</svg>
