<svg width="99" height="41" viewBox="0 0 99 41" fill="none" xmlns="http://www.w3.org/2000/svg">
<path d="M13.4 38.76C11.1867 38.76 9.34667 38.32 7.88 37.44C6.41333 36.56 5.32 35.3867 4.6 33.92C3.88 32.4533 3.52 30.84 3.52 29.08C3.52 28.7067 3.53333 28.3333 3.56 27.96C3.61333 27.56 3.66667 27.16 3.72 26.76C2.81333 26.0667 2.09333 25.2133 1.56 24.2C1.05333 23.1867 0.8 22.0133 0.8 20.68C0.8 18.76 1.34667 17.0133 2.44 15.44C3.53333 13.8667 4.96 12.5333 6.72 11.44C6.69333 11.2533 6.66667 11.08 6.64 10.92C6.64 10.7333 6.64 10.5467 6.64 10.36C6.64 10.2533 6.64 10.16 6.64 10.08C6.64 9.97333 6.65333 9.86667 6.68 9.76C6.89333 7.92 7.45333 6.28 8.36 4.84C9.29333 3.37333 10.6933 2.22666 12.56 1.4C14.4533 0.573332 16.9333 0.159999 20 0.159999C20.5333 0.159999 21.0933 0.173333 21.68 0.199999C22.2667 0.226665 22.8667 0.266665 23.48 0.319997C24.8667 0.453332 26.5067 0.799999 28.4 1.36C30.32 1.92 32.36 2.56 34.52 3.28C36.7067 4 38.88 4.66666 41.04 5.28C41.68 4.45333 42.3333 3.76 43 3.2C43.6933 2.64 44.4133 2.24 45.16 2H45.28C45.4667 2 45.56 2.09333 45.56 2.28C45.56 2.44 45.4933 2.53333 45.36 2.56C44.6933 2.77333 44.0533 3.13333 43.44 3.64C42.8533 4.12 42.2667 4.72 41.68 5.44C43.2533 5.86667 44.7733 6.21333 46.24 6.48C47.7067 6.74667 49.0533 6.88 50.28 6.88C51.2133 6.88 52.0533 6.8 52.8 6.64C53.5733 6.45333 54.2533 6.16 54.84 5.76C56.1733 4.85333 56.96 3.50667 57.2 1.72C57.2 1.53333 57.2933 1.44 57.48 1.44C57.56 1.44 57.64 1.48 57.72 1.56C57.8 1.61333 57.8267 1.69333 57.8 1.8C57.6933 2.76 57.4133 3.61333 56.96 4.36C56.5333 5.08 55.9867 5.68 55.32 6.16C54.4133 6.82667 53.3467 7.30667 52.12 7.6C50.8933 7.89333 49.56 8.04 48.12 8.04C46.9733 8.04 45.7467 7.96 44.44 7.8C43.16 7.61333 41.84 7.38666 40.48 7.12C40.2667 7.46666 40.04 7.82667 39.8 8.2C39.56 8.57333 39.3333 8.96 39.12 9.36C38.4533 10.56 37.88 11.9867 37.4 13.64C36.92 15.2667 36.4267 17.0133 35.92 18.88C35.4133 20.72 34.8133 22.5867 34.12 24.48C33.4267 26.3467 32.5467 28.1333 31.48 29.84C30.44 31.5467 29.12 33.0667 27.52 34.4C25.92 35.76 23.96 36.8267 21.64 37.6C19.3467 38.3733 16.6 38.76 13.4 38.76ZM13.4 38.16C15.56 38.16 17.52 37.76 19.28 36.96C21.0667 36.1867 22.68 35.12 24.12 33.76C25.5867 32.4 26.92 30.84 28.12 29.08C29.3467 27.32 30.4667 25.4533 31.48 23.48C32.52 21.5067 33.4933 19.5333 34.4 17.56C35.3333 15.5867 36.24 13.6933 37.12 11.88C38.0267 10.0667 38.9333 8.44 39.84 7C37.6 6.52 35.32 5.96 33 5.32C30.68 4.65333 28.4533 4.04 26.32 3.48C25.2533 3.18667 24.1867 2.98666 23.12 2.88C22.0533 2.74666 21.0133 2.68 20 2.68C17.76 2.68 15.6933 2.97333 13.8 3.56C11.9333 4.12 10.4133 4.93333 9.24 6C8.06667 7.04 7.41333 8.28 7.28 9.72C7.28 9.82666 7.26667 9.92 7.24 10C7.24 10.08 7.24 10.1733 7.24 10.28C7.24 10.3867 7.24 10.52 7.24 10.68C7.26667 10.8133 7.29333 10.9467 7.32 11.08C8.52 10.3867 9.81333 9.77333 11.2 9.24C12.6133 8.68 14.0667 8.4 15.56 8.4H15.6C15.8133 8.4 15.92 8.50667 15.92 8.72C15.92 8.88 15.8267 8.97333 15.64 9C14.1467 9.18667 12.6933 9.50667 11.28 9.96C9.89333 10.4133 8.61333 10.9867 7.44 11.68C7.6 12.4267 7.89333 13.1733 8.32 13.92C8.77333 14.64 9.34667 15.28 10.04 15.84C11.08 14.9333 12.2267 14.12 13.48 13.4C14.76 12.6533 16.1467 12.0267 17.64 11.52C19.64 10.8533 21.4267 10.52 23 10.52C25.2933 10.52 27 11.12 28.12 12.32C29.2667 13.4933 29.84 14.92 29.84 16.6C29.84 17.96 29.4667 19.3733 28.72 20.84C28 22.3067 26.8933 23.6667 25.4 24.92C23.9333 26.1733 22.1067 27.2 19.92 28C17.7333 28.7733 15.1733 29.16 12.24 29.16C10.9333 29.16 9.66667 29.04 8.44 28.8C7.24 28.5333 6.13333 28.1467 5.12 27.64C5.09333 27.88 5.06667 28.12 5.04 28.36C5.04 28.6 5.04 28.84 5.04 29.08C5.04 30.7333 5.33333 32.2533 5.92 33.64C6.53333 35 7.45333 36.0933 8.68 36.92C9.93333 37.7467 11.5067 38.16 13.4 38.16ZM12.88 28.6C15.4667 28.6 17.7333 28.2267 19.68 27.48C21.6533 26.7333 23.3067 25.7733 24.64 24.6C25.9733 23.4 26.9733 22.12 27.64 20.76C28.3067 19.3733 28.64 18.04 28.64 16.76C28.64 15.2133 28.1467 13.9067 27.16 12.84C26.1733 11.7733 24.6533 11.24 22.6 11.24C21.2133 11.24 19.6267 11.5333 17.84 12.12C16.4533 12.5733 15.16 13.1733 13.96 13.92C12.7867 14.64 11.72 15.4533 10.76 16.36C11.3733 16.7333 12.0667 17.04 12.84 17.28C13.6133 17.4933 14.4667 17.6 15.4 17.6C15.9333 17.6 16.4933 17.5733 17.08 17.52C17.6667 17.44 18.28 17.3067 18.92 17.12H19.04C19.2 17.12 19.28 17.2133 19.28 17.4C19.28 17.56 19.2133 17.6533 19.08 17.68C18.4133 17.8667 17.7733 18 17.16 18.08C16.5467 18.16 15.96 18.2 15.4 18.2C14.36 18.2 13.4133 18.08 12.56 17.84C11.7333 17.5733 10.9867 17.2267 10.32 16.8C8.90667 18.2667 7.77333 19.88 6.92 21.64C6.06667 23.3733 5.50667 25.1067 5.24 26.84C6.28 27.4267 7.45333 27.8667 8.76 28.16C10.0933 28.4533 11.4667 28.6 12.88 28.6ZM3.92 25.92C4.29333 24.24 4.94667 22.56 5.88 20.88C6.84 19.2 8.06667 17.6667 9.56 16.28C8.86667 15.6933 8.29333 15.0267 7.84 14.28C7.38667 13.5333 7.05333 12.7867 6.84 12.04C5.21333 13.1067 3.89333 14.3733 2.88 15.84C1.89333 17.3067 1.4 18.9067 1.4 20.64C1.4 21.76 1.62667 22.76 2.08 23.64C2.53333 24.52 3.14667 25.28 3.92 25.92ZM52.8422 40.32C52.3622 40.32 51.8555 40.28 51.3222 40.2C49.1622 39.88 47.2955 39.0533 45.7222 37.72C44.1755 36.3867 42.9755 34.7467 42.1222 32.8C41.2955 30.8267 40.8822 28.7467 40.8822 26.56C40.8822 24.7733 41.1755 23.04 41.7622 21.36C42.3222 19.7333 43.0422 18.1467 43.9222 16.6C44.8022 15.0533 45.9222 13.6 47.2822 12.24C48.6422 10.88 50.3089 9.66667 52.2822 8.6C54.2822 7.53333 56.6822 6.66667 59.4822 6C62.2822 5.30667 65.5755 4.88 69.3622 4.72C69.7355 4.69333 70.1755 4.68 70.6822 4.68C71.2155 4.68 71.7489 4.68 72.2822 4.68C73.0289 4.68 73.7489 4.68 74.4422 4.68C75.1355 4.68 75.6822 4.69333 76.0822 4.72C76.2955 4.72 76.4022 4.82666 76.4022 5.04C76.4022 5.22667 76.2955 5.32 76.0822 5.32C75.1222 5.34667 74.3489 5.68 73.7622 6.32C73.1755 6.96 72.5889 7.78666 72.0022 8.8C71.6822 9.46667 71.4155 10.2267 71.2022 11.08C72.5622 11.5067 73.8289 12.1867 75.0022 13.12C76.1755 14.0267 77.1755 15.08 78.0022 16.28C79.0955 14.4133 80.2289 12.6 81.4022 10.84C82.6022 9.08 83.8289 7.48 85.0822 6.04C86.5755 4.33333 88.0555 3.10667 89.5222 2.36C90.9889 1.58667 92.3089 1.2 93.4822 1.2C94.8422 1.2 95.9355 1.64 96.7622 2.52C97.6155 3.37333 98.0422 4.53333 98.0422 6C98.0422 7.54667 97.4555 9.36 96.2822 11.44C95.1355 13.52 93.2022 15.6933 90.4822 17.96C89.1222 19.08 87.5755 20.08 85.8422 20.96C84.1355 21.8133 82.3489 22.5333 80.4822 23.12V23.72C80.4822 25.5067 80.2155 26.8933 79.6822 27.88C79.1489 28.8667 78.4955 29.5467 77.7222 29.92C76.9755 30.2933 76.2689 30.48 75.6022 30.48C75.0955 30.48 74.6555 30.4133 74.2822 30.28C73.9355 30.12 73.7355 29.9467 73.6822 29.76V29.68C73.6822 29.5467 73.7489 29.48 73.8822 29.48C74.0155 29.4533 74.0955 29.5067 74.1222 29.64C74.1489 29.6667 74.2955 29.7333 74.5622 29.84C74.8289 29.9467 75.1755 30 75.6022 30C75.8155 30 76.0422 29.9867 76.2822 29.96C76.5222 29.9067 76.7755 29.8267 77.0422 29.72C77.7889 29.4267 78.4689 28.84 79.0822 27.96C79.6955 27.08 80.0022 25.6667 80.0022 23.72V23.28C78.4022 23.76 76.7489 24.12 75.0422 24.36C74.7755 24.76 74.5089 25.16 74.2422 25.56C73.9755 25.9333 73.6955 26.3067 73.4022 26.68C72.1755 28.4133 70.9355 29.9867 69.6822 31.4C68.4289 32.8133 67.2022 33.92 66.0022 34.72C64.8289 35.5467 63.7222 35.9333 62.6822 35.88C62.4689 35.88 62.3622 35.8 62.3622 35.64C62.3622 35.5333 62.4155 35.44 62.5222 35.36C63.5622 34.64 64.4022 33.7067 65.0422 32.56C65.7089 31.4133 66.2289 30.1333 66.6022 28.72C67.0022 27.28 67.3089 25.8133 67.5222 24.32C65.7889 24.0533 64.1755 23.6133 62.6822 23C61.1889 22.36 60.0022 21.5333 59.1222 20.52C58.2422 19.5067 57.8422 18.32 57.9222 16.96C58.0289 15.44 58.5089 14.2 59.3622 13.24C60.2155 12.28 61.2822 11.5733 62.5622 11.12C63.8689 10.6667 65.2289 10.44 66.6422 10.44C67.1755 10.44 67.6955 10.4667 68.2022 10.52C68.7089 10.5733 69.2155 10.6533 69.7222 10.76C69.8555 10.36 70.0155 10.0133 70.2022 9.72C70.6022 9.02667 71.1622 8.25333 71.8822 7.4C72.6022 6.52 73.4022 5.89333 74.2822 5.52C73.6422 5.46667 72.9889 5.42666 72.3222 5.4C71.6822 5.37333 71.0289 5.36 70.3622 5.36C67.4555 5.36 64.5755 5.66667 61.7222 6.28C58.8955 6.86667 56.2289 7.81333 53.7222 9.12C51.2422 10.4 49.0555 12.08 47.1622 14.16C45.2689 16.24 43.8155 18.7467 42.8022 21.68C42.1889 23.4667 41.8822 25.2533 41.8822 27.04C41.8822 29.0667 42.2555 30.9867 43.0022 32.8C43.7755 34.6133 44.8689 36.1333 46.2822 37.36C47.6955 38.5867 49.4022 39.3467 51.4022 39.64C51.6422 39.6667 51.8822 39.68 52.1222 39.68C52.3622 39.7067 52.6022 39.72 52.8422 39.72C54.5489 39.72 56.1222 39.32 57.5622 38.52C59.0022 37.72 59.9489 36.52 60.4022 34.92C60.4289 34.7867 60.5222 34.72 60.6822 34.72C60.9222 34.72 61.0155 34.84 60.9622 35.08C60.6422 36.2533 60.0689 37.2267 59.2422 38C58.4155 38.7733 57.4422 39.3467 56.3222 39.72C55.2022 40.12 54.0422 40.32 52.8422 40.32ZM80.4422 22.6C83.7489 21.5333 86.7089 19.96 89.3222 17.88C91.1889 16.3867 92.7089 14.88 93.8822 13.36C95.0822 11.84 95.9622 10.4133 96.5222 9.08C97.1089 7.72 97.4022 6.53333 97.4022 5.52C97.4022 4.64 97.1889 3.94666 96.7622 3.44C96.3355 2.90666 95.7222 2.64 94.9222 2.64C94.0689 2.64 93.0022 2.98667 91.7222 3.68C90.4689 4.37333 89.0289 5.53333 87.4022 7.16C85.9889 8.6 84.5889 10.28 83.2022 12.2C81.8155 14.12 80.4555 16.0933 79.1222 18.12C79.4689 18.8133 79.7489 19.5467 79.9622 20.32C80.2022 21.0667 80.3622 21.8267 80.4422 22.6ZM67.6022 23.8C67.8155 22.36 67.9755 20.9467 68.0822 19.56C68.2155 18.1467 68.3622 16.88 68.5222 15.76C68.6555 14.9067 68.8022 14.0933 68.9622 13.32C69.1222 12.5467 69.3222 11.8267 69.5622 11.16C68.8155 11 68.0289 10.92 67.2022 10.92C65.9489 10.92 64.7355 11.1333 63.5622 11.56C62.4155 11.96 61.4689 12.6133 60.7222 13.52C59.9755 14.4 59.5489 15.5467 59.4422 16.96C59.3622 18.1867 59.6689 19.2667 60.3622 20.2C61.0555 21.1333 62.0289 21.9067 63.2822 22.52C64.5355 23.1067 65.9755 23.5333 67.6022 23.8ZM70.3222 24.08C70.8555 24.1067 71.3889 24.12 71.9222 24.12C72.4822 24.0933 73.0289 24.0533 73.5622 24C74.2555 22.8533 74.9355 21.6667 75.6022 20.44C76.2955 19.1867 77.0155 17.9467 77.7622 16.72C76.9355 15.5467 75.9489 14.5067 74.8022 13.6C73.6822 12.6667 72.4555 11.9867 71.1222 11.56C70.8822 12.84 70.7355 14.24 70.6822 15.76C70.6289 17.28 70.5889 18.7733 70.5622 20.24C70.5622 21.68 70.4822 22.96 70.3222 24.08ZM75.4022 23.8C76.1755 23.6667 76.9355 23.52 77.6822 23.36C78.4555 23.2 79.2155 23 79.9622 22.76C79.8555 21.3467 79.4689 19.96 78.8022 18.6L75.4022 23.8ZM65.6022 34C66.7755 33.5733 68.0022 32.4933 69.2822 30.76C70.5622 29 71.8955 26.9333 73.2822 24.56C72.7755 24.5867 72.2689 24.6133 71.7622 24.64C71.2555 24.64 70.7622 24.6267 70.2822 24.6C70.0155 26.3067 69.5355 27.9733 68.8422 29.6C68.1489 31.2267 67.0689 32.6933 65.6022 34Z" fill="#A30049"/>
</svg>
