<svg width="36" height="33" viewBox="0 0 36 33" fill="none" xmlns="http://www.w3.org/2000/svg">
<path d="M17.7187 6.18538C19.3836 6.18538 20.7381 4.83085 20.7381 3.16593C20.7381 1.50101 19.3836 0.146484 17.7187 0.146484C16.0537 0.146484 14.6992 1.50101 14.6992 3.16593C14.6992 4.83085 16.0537 6.18538 17.7187 6.18538Z" fill="#A30049"/>
<path d="M12.9392 15.4477H22.459C23.079 15.4477 23.5816 14.9451 23.5816 14.3252V10.1743C23.5816 9.02529 22.8431 8.00648 21.7512 7.64874L21.7461 7.6471L20.149 7.38262C20.0131 7.34082 19.8678 7.41277 19.819 7.54689L18.0068 12.5189C17.9023 12.8058 17.4966 12.8058 17.3921 12.5189L15.5799 7.54689C15.5405 7.43855 15.4383 7.37073 15.3288 7.37073C15.3029 7.37073 15.2764 7.37461 15.2502 7.38262L13.6528 7.64674C12.5519 8.01355 11.8164 9.03412 11.8164 10.1881V14.3252C11.8166 14.9451 12.3192 15.4477 12.9392 15.4477Z" fill="#A30049"/>
<path d="M6.03507 23.5913C7.69999 23.5913 9.05452 22.2367 9.05452 20.5718C9.05452 18.9069 7.69999 17.5524 6.03507 17.5524C4.37015 17.5524 3.01562 18.9069 3.01562 20.5718C3.01562 22.2367 4.37015 23.5913 6.03507 23.5913Z" fill="#A30049"/>
<path d="M10.0597 25.0545L10.0546 25.0529L8.4575 24.7884C8.32162 24.7466 8.17631 24.8185 8.12744 24.9526L6.31532 29.9247C6.21076 30.2115 5.8051 30.2115 5.70053 29.9247L3.88842 24.9526C3.84897 24.8443 3.74676 24.7765 3.63725 24.7765C3.61134 24.7765 3.58485 24.7804 3.5587 24.7884L1.96125 25.0525C0.860491 25.4193 0.125 26.4399 0.125 27.5939V31.7309C0.125 32.3509 0.627574 32.8535 1.24755 32.8535H10.7674C11.3873 32.8535 11.8899 32.3509 11.8899 31.7309V27.5801C11.8899 26.4312 11.1516 25.4122 10.0597 25.0545Z" fill="#A30049"/>
<path d="M29.2421 23.5913C30.907 23.5913 32.2616 22.2367 32.2616 20.5718C32.2616 18.9069 30.907 17.5524 29.2421 17.5524C27.5772 17.5524 26.2227 18.9069 26.2227 20.5718C26.2227 22.2367 27.5771 23.5913 29.2421 23.5913Z" fill="#A30049"/>
<path d="M33.2942 25.0545L33.2891 25.0529L31.692 24.7884C31.5561 24.7466 31.4108 24.8185 31.3619 24.9526L29.5498 29.9247C29.4453 30.2115 29.0396 30.2115 28.935 29.9247L27.1229 24.9526C27.0835 24.8443 26.9813 24.7765 26.8717 24.7765C26.8458 24.7765 26.8193 24.7804 26.7932 24.7884L25.1957 25.0525C24.0949 25.4193 23.3594 26.4399 23.3594 27.5939V31.7309C23.3594 32.3509 23.8619 32.8535 24.4819 32.8535H34.0017C34.6217 32.8535 35.1243 32.3509 35.1243 31.7309V27.5801C35.1245 26.4312 34.3861 25.4122 33.2942 25.0545Z" fill="#A30049"/>
<path d="M18.7145 16.2974H16.7219V20.8368L12.0312 25.5274C12.4559 26.1086 12.7 26.8214 12.7 27.58V27.6768L17.7182 22.6584L22.5431 27.4835C22.5673 26.7149 22.8408 25.9975 23.2988 25.4211L18.7145 20.8368V16.2974Z" fill="#A30049"/>
<path d="M18.4388 7.36699C18.3603 7.2815 18.2456 7.2384 18.1295 7.2384H17.2636C17.1475 7.2384 17.0328 7.28138 16.9543 7.36699C16.8328 7.49935 16.8151 7.69058 16.9014 7.84013L17.3642 8.53782L17.1475 10.3656L17.5741 11.5005C17.6157 11.6146 17.7771 11.6146 17.8188 11.5005L18.2454 10.3656L18.0288 8.53782L18.4916 7.84013C18.5779 7.69058 18.5603 7.49935 18.4388 7.36699Z" fill="#A30049"/>
<path d="M6.7513 24.7765C6.67276 24.691 6.55806 24.6479 6.44196 24.6479H5.57611C5.46001 24.6479 5.34532 24.6909 5.26677 24.7765C5.14525 24.9089 5.12759 25.1001 5.2139 25.2497L5.67668 25.9474L5.46001 27.775L5.88663 28.9099C5.9282 29.024 6.08964 29.024 6.13121 28.9099L6.55783 27.775L6.34116 25.9474L6.80393 25.2497C6.89037 25.1002 6.87282 24.909 6.7513 24.7765Z" fill="#A30049"/>
<path d="M29.9857 24.7765C29.9071 24.691 29.7924 24.6479 29.6763 24.6479H28.8105C28.6944 24.6479 28.5797 24.6909 28.5011 24.7765C28.3796 24.9089 28.362 25.1001 28.4483 25.2497L28.9111 25.9474L28.6944 27.775L29.121 28.9099C29.1626 29.024 29.324 29.024 29.3656 28.9099L29.7922 27.775L29.5755 25.9474L30.0383 25.2497C30.1249 25.1002 30.1072 24.909 29.9857 24.7765Z" fill="#A30049"/>
</svg>
