<svg width="36" height="35" viewBox="0 0 36 35" fill="none" xmlns="http://www.w3.org/2000/svg">
<g clip-path="url(#clip0_1840_1064)">
<path d="M33.4795 15.771C32.7494 15.771 32.1258 16.227 31.8749 16.8705H28.6733V13.824H30.4271C30.7735 13.824 31.0544 13.5422 31.0544 13.1945C31.0544 12.8468 30.7735 12.565 30.4271 12.565H28.6733V9.51842H30.4271C30.7735 9.51842 31.0544 9.23661 31.0544 8.88893C31.0544 8.54129 30.7735 8.25943 30.4271 8.25943H28.6733V8.06776C28.6733 7.23335 27.9993 6.55697 27.1679 6.55697H26.9518V4.77162C26.9518 4.42393 26.671 4.14212 26.3246 4.14212C25.9781 4.14212 25.6973 4.42393 25.6973 4.77162V6.55697H22.6617V3.35102C23.3029 3.09922 23.7573 2.47345 23.7573 1.74072C23.7573 0.785798 22.986 0.0117188 22.0345 0.0117188C21.083 0.0117188 20.3116 0.785849 20.3116 1.74072C20.3116 2.47345 20.766 3.09927 21.4072 3.35102V6.55697H18.3716V4.77162C18.3716 4.42393 18.0907 4.14212 17.7443 4.14212C17.3979 4.14212 17.1171 4.42393 17.1171 4.77162V6.55697H14.0814V3.35102C14.7226 3.09922 15.177 2.47345 15.177 1.74072C15.177 0.785798 14.4057 0.0117188 13.4542 0.0117188C12.5027 0.0117188 11.7314 0.785849 11.7314 1.74072C11.7314 2.47345 12.1858 3.09927 12.827 3.35102V6.55697H9.79133V4.77162C9.79133 4.42393 9.51052 4.14212 9.16409 4.14212C8.81765 4.14212 8.53685 4.42393 8.53685 4.77162V6.55697H8.32078C7.48936 6.55697 6.8154 7.23335 6.8154 8.06776V8.25943H5.06153C4.7151 8.25943 4.43429 8.54129 4.43429 8.88893C4.43429 9.23661 4.7151 9.51842 5.06153 9.51842H6.8154V12.565H5.06153C4.7151 12.565 4.43429 12.8468 4.43429 13.1945C4.43429 13.5422 4.7151 13.824 5.06153 13.824H6.8154V16.8705H3.62811C3.37727 16.227 2.75369 15.771 2.02358 15.771C1.07209 15.771 0.300781 16.5452 0.300781 17.5C0.300781 18.455 1.07214 19.229 2.02358 19.229C2.75364 19.229 3.37727 18.773 3.62811 18.1295H6.8154V21.1761H5.06153C4.7151 21.1761 4.43429 21.4579 4.43429 21.8056C4.43429 22.1533 4.7151 22.4351 5.06153 22.4351H6.8154V25.4816H5.06153C4.7151 25.4816 4.43429 25.7635 4.43429 26.1111C4.43429 26.4588 4.7151 26.7406 5.06153 26.7406H6.8154V26.9827C6.8154 27.8171 7.48936 28.4935 8.32078 28.4935H8.53685V30.2285C8.53685 30.5761 8.81765 30.858 9.16409 30.858C9.51052 30.858 9.79133 30.5761 9.79133 30.2285V28.4935H12.827V31.6491C12.1858 31.9008 11.7314 32.5267 11.7314 33.2594C11.7314 34.2143 12.5027 34.9884 13.4542 34.9884C14.4057 34.9884 15.177 34.2143 15.177 33.2594C15.177 32.5267 14.7226 31.9008 14.0814 31.6491V28.4935H17.1171V30.2285C17.1171 30.5761 17.3979 30.858 17.7443 30.858C18.0908 30.858 18.3716 30.5761 18.3716 30.2285V28.4935H21.4072V31.6491C20.766 31.9008 20.3116 32.5267 20.3116 33.2594C20.3116 34.2143 21.083 34.9884 22.0345 34.9884C22.986 34.9884 23.7573 34.2143 23.7573 33.2594C23.7573 32.5267 23.3029 31.9008 22.6617 31.6491V28.4935H25.6973V30.2285C25.6973 30.5761 25.9781 30.858 26.3246 30.858C26.671 30.858 26.9518 30.5761 26.9518 30.2285V28.4935H27.1679C27.9993 28.4935 28.6733 27.8171 28.6733 26.9827V26.7406H30.4271C30.7735 26.7406 31.0544 26.4588 31.0544 26.1111C31.0544 25.7635 30.7735 25.4816 30.4271 25.4816H28.6733V22.4351H30.4271C30.7735 22.4351 31.0544 22.1533 31.0544 21.8056C31.0544 21.4579 30.7735 21.1761 30.4271 21.1761H28.6733V18.1295H31.8749C32.1258 18.773 32.7494 19.229 33.4795 19.229C34.431 19.229 35.2023 18.4549 35.2023 17.5C35.2023 16.5451 34.431 15.771 33.4795 15.771ZM16.6915 9.77395H23.4136C23.76 9.77395 24.0409 10.0558 24.0409 10.4034C24.0409 10.7511 23.76 11.0329 23.4136 11.0329H16.6915C16.3451 11.0329 16.0643 10.7511 16.0643 10.4034C16.0643 10.0558 16.3451 9.77395 16.6915 9.77395ZM20.7515 15.8708C20.5065 15.625 20.5065 15.2264 20.7515 14.9806C20.9965 14.7347 21.3936 14.7347 21.6385 14.9806L23.7557 17.1053C24.0006 17.3511 24.0006 17.7497 23.7557 17.9955L21.6385 20.1203C21.3936 20.3661 20.9964 20.3661 20.7515 20.1203C20.5065 19.8744 20.5065 19.4758 20.7515 19.23L22.4251 17.5504L20.7515 15.8708ZM12.075 9.77395H14.1472C14.4937 9.77395 14.7745 10.0558 14.7745 10.4034C14.7745 10.7511 14.4937 11.0329 14.1472 11.0329H12.075C11.7286 11.0329 11.4478 10.7511 11.4478 10.4034C11.4478 10.0558 11.7286 9.77395 12.075 9.77395ZM9.02991 8.21179C9.37634 8.21179 9.65715 8.49365 9.65715 8.84129C9.65715 9.18897 9.37634 9.47078 9.02991 9.47078C8.68347 9.47078 8.40267 9.18897 8.40267 8.84129C8.40267 8.49365 8.68347 8.21179 9.02991 8.21179ZM9.02991 25.5796C9.37634 25.5796 9.65715 25.8615 9.65715 26.2091C9.65715 26.5568 9.37634 26.8386 9.02991 26.8386C8.68347 26.8386 8.40267 26.5568 8.40267 26.2091C8.40267 25.8615 8.68347 25.5796 9.02991 25.5796ZM10.8258 20.3046H9.44655C9.10011 20.3046 8.81931 20.0228 8.81931 19.6751C8.81931 19.3274 9.10011 19.0456 9.44655 19.0456H10.8258C11.1722 19.0456 11.453 19.3274 11.453 19.6751C11.453 20.0228 11.1722 20.3046 10.8258 20.3046ZM14.1472 25.2765H12.075C11.7286 25.2765 11.4478 24.9947 11.4478 24.647C11.4478 24.2994 11.7286 24.0175 12.075 24.0175H14.1472C14.4937 24.0175 14.7745 24.2994 14.7745 24.647C14.7745 24.9947 14.4937 25.2765 14.1472 25.2765ZM14.7372 19.23C14.9822 19.4758 14.9822 19.8744 14.7372 20.1203C14.4922 20.3661 14.0951 20.3661 13.8502 20.1203L11.7331 17.9955C11.4881 17.7497 11.4881 17.3511 11.7331 17.1053L13.8502 14.9806C14.0951 14.7347 14.4923 14.7347 14.7372 14.9806C14.9822 15.2264 14.9822 15.625 14.7372 15.8708L13.0637 17.5504L14.7372 19.23ZM16.0957 20.5565L18.2017 14.1498C18.3102 13.8196 18.6649 13.6403 18.9938 13.7492C19.3228 13.8581 19.5015 14.2141 19.393 14.5442L17.2871 20.9509C17.1785 21.2811 16.8238 21.4604 16.4949 21.3515C16.1659 21.2427 15.9872 20.8867 16.0957 20.5565ZM23.4137 25.2765H16.6915C16.3451 25.2765 16.0643 24.9947 16.0643 24.647C16.0643 24.2994 16.3451 24.0175 16.6915 24.0175H23.4136C23.76 24.0175 24.0409 24.2994 24.0409 24.647C24.0409 24.9947 23.7601 25.2765 23.4137 25.2765ZM24.0357 19.6751C24.0357 19.3274 24.3165 19.0456 24.6629 19.0456H26.0422C26.3886 19.0456 26.6694 19.3274 26.6694 19.6751C26.6694 20.0228 26.3886 20.3046 26.0422 20.3046H24.6629C24.3165 20.3046 24.0357 20.0228 24.0357 19.6751ZM26.4588 26.8386C26.1124 26.8386 25.8316 26.5568 25.8316 26.2091C25.8316 25.8615 26.1124 25.5796 26.4588 25.5796C26.8052 25.5796 27.086 25.8615 27.086 26.2091C27.086 26.5568 26.8052 26.8386 26.4588 26.8386ZM26.4588 9.47078C26.1124 9.47078 25.8316 9.18897 25.8316 8.84129C25.8316 8.49365 26.1124 8.21179 26.4588 8.21179C26.8052 8.21179 27.086 8.49365 27.086 8.84129C27.086 9.18897 26.8052 9.47078 26.4588 9.47078Z" fill="#A30049"/>
</g>
<defs>
<clipPath id="clip0_1840_1064">
<rect width="35" height="35" fill="white" transform="translate(0.25)"/>
</clipPath>
</defs>
</svg>
