<svg width="36" height="35" viewBox="0 0 36 35" fill="none" xmlns="http://www.w3.org/2000/svg">
<g clip-path="url(#clip0_1840_1069)">
<path d="M32.9157 8.09204H31.2766V23.135C31.2766 24.6212 30.0673 25.83 28.5816 25.83H6.10874C4.62257 25.83 3.41374 24.6212 3.41374 23.135V8.09204H1.77469C0.962758 8.09204 0.304688 8.75011 0.304688 9.56204V28.182C0.304688 28.994 0.962758 29.652 1.77469 29.652H32.9157C33.7276 29.652 34.3857 28.994 34.3857 28.182V9.56204C34.3857 8.75011 33.7276 8.09204 32.9157 8.09204ZM17.3449 28.3535C17.0068 28.3535 16.7324 28.0791 16.7324 27.741C16.7324 27.4029 17.0068 27.1285 17.3449 27.1285C17.6835 27.1285 17.9574 27.4029 17.9574 27.741C17.9574 28.0791 17.6835 28.3535 17.3449 28.3535Z" fill="#A30049"/>
<path d="M21.8133 34.354L21.7187 34.5651H12.9737L12.8786 34.354C12.5229 33.5582 12.6944 32.6258 13.3108 32.0093L14.4432 30.877H20.2492L21.3816 32.0093C21.9975 32.6258 22.1695 33.5582 21.8133 34.354Z" fill="#A30049"/>
<path d="M4.63672 1.95376V5.52097H30.0524V1.95376C30.0524 1.14526 29.3909 0.483765 28.5824 0.483765H6.10672C5.29822 0.483765 4.63672 1.14526 4.63672 1.95376ZM25.519 3.00241C25.519 2.66554 25.7946 2.38991 26.1315 2.38991H27.5035C27.8404 2.38991 28.116 2.66554 28.116 3.00241C28.116 3.33929 27.8404 3.61491 27.5035 3.61491H26.1315C25.7946 3.61491 25.519 3.33929 25.519 3.00241ZM21.4275 3.00241C21.4275 2.66554 21.7031 2.38991 22.04 2.38991H23.412C23.7489 2.38991 24.0245 2.66554 24.0245 3.00241C24.0245 3.33929 23.7489 3.61491 23.412 3.61491H22.04C21.7031 3.61491 21.4275 3.33929 21.4275 3.00241ZM17.336 3.00241C17.336 2.66554 17.6116 2.38991 17.9485 2.38991H19.3205C19.6574 2.38991 19.933 2.66554 19.933 3.00241C19.933 3.33929 19.6574 3.61491 19.3205 3.61491H17.9485C17.6116 3.61491 17.336 3.33929 17.336 3.00241Z" fill="#A30049"/>
<path d="M22.7004 10.6399C22.0072 10.6399 21.4453 11.2018 21.4453 11.8949C21.4453 12.5881 22.0072 13.15 22.7004 13.15C23.3936 13.15 23.9555 12.5881 23.9555 11.8949C23.9555 11.2018 23.3936 10.6399 22.7004 10.6399Z" fill="#A30049"/>
<path d="M22.6984 18.8719C22.3607 18.8719 22.0859 19.1339 22.0859 19.4559C22.0859 19.7779 22.3607 20.0399 22.6984 20.0399C23.0362 20.0399 23.3109 19.7779 23.3109 19.4559C23.3109 19.1339 23.0361 18.8719 22.6984 18.8719Z" fill="#A30049"/>
<path d="M4.63672 6.74597V23.135C4.63672 23.9435 5.29822 24.605 6.10672 24.605H28.5824C29.3909 24.605 30.0524 23.9435 30.0524 23.135V6.74597H4.63672ZM19.3327 16.2003C19.3327 16.4658 19.134 16.6893 18.8703 16.7204L18.0294 16.8195C17.9259 17.2973 17.7374 17.7438 17.4802 18.1421L18.0056 18.8081C18.17 19.0165 18.1525 19.315 17.9648 19.5028L17.6368 19.8307C17.4491 20.0185 17.1505 20.036 16.9421 19.8715L16.2762 19.3461C15.8779 19.6033 15.4314 19.7919 14.9535 19.8953L14.8544 20.7363C14.8233 20.9999 14.5998 21.1986 14.3343 21.1986H13.8705C13.605 21.1986 13.3816 20.9999 13.3504 20.7363L13.2513 19.8953C12.7735 19.7919 12.3269 19.6033 11.9286 19.3461L11.2627 19.8715C11.0543 20.036 10.7558 20.0185 10.568 19.8307L10.2401 19.5028C10.0523 19.315 10.0348 19.0165 10.1992 18.8081L10.7247 18.1421C10.4675 17.7438 10.2789 17.2973 10.1754 16.8195L9.33454 16.7204C9.07083 16.6892 8.87218 16.4658 8.87218 16.2003V15.7364C8.87218 15.471 9.07088 15.2475 9.33454 15.2164L10.1754 15.1172C10.2789 14.6394 10.4675 14.1929 10.7247 13.7946L10.1992 13.1287C10.0348 12.9202 10.0523 12.6217 10.2401 12.4339L10.568 12.106C10.7558 11.9183 11.0543 11.9008 11.2627 12.0652L11.9286 12.5906C12.3269 12.3334 12.7734 12.1448 13.2513 12.0414L13.3504 11.2005C13.3815 10.9368 13.605 10.7381 13.8705 10.7381H14.3343C14.5998 10.7381 14.8233 10.9368 14.8544 11.2005L14.9535 12.0414C15.4314 12.1448 15.8779 12.3334 16.2762 12.5906L16.9421 12.0652C17.1505 11.9008 17.449 11.9183 17.6368 12.106L17.9648 12.4339C18.1525 12.6217 18.17 12.9202 18.0056 13.1287L17.4802 13.7946C17.7374 14.1929 17.926 14.6394 18.0294 15.1172L18.8703 15.2164C19.134 15.2475 19.3327 15.471 19.3327 15.7364V16.2003ZM25.8172 19.5941C25.8172 19.7523 25.6987 19.8855 25.5416 19.904L25.0404 19.9631C24.9787 20.248 24.8664 20.514 24.7131 20.7514L25.0262 21.1482C25.1242 21.2725 25.1138 21.4504 25.0019 21.5622L24.8064 21.7577C24.6946 21.8696 24.5167 21.8801 24.3924 21.782L23.9956 21.4689C23.7582 21.6222 23.4921 21.7346 23.2073 21.7962L23.1482 22.2974C23.1297 22.4545 22.9965 22.573 22.8383 22.573H22.5619C22.4036 22.573 22.2704 22.4545 22.2519 22.2974L22.1928 21.7962C21.908 21.7346 21.6419 21.6222 21.4045 21.4689L21.0077 21.782C20.8835 21.8801 20.7055 21.8696 20.5937 21.7577L20.3982 21.5622C20.2863 21.4504 20.2759 21.2725 20.3739 21.1482L20.687 20.7514C20.5337 20.514 20.4213 20.2479 20.3597 19.9631L19.8585 19.904C19.7014 19.8855 19.5829 19.7523 19.5829 19.5941V19.3177C19.5829 19.1594 19.7014 19.0263 19.8585 19.0077L20.3597 18.9486C20.4213 18.6638 20.5337 18.3977 20.687 18.1604L20.3739 17.7635C20.2759 17.6393 20.2863 17.4613 20.3982 17.3495L20.5937 17.1541C20.7056 17.0422 20.8835 17.0317 21.0077 17.1297L21.4045 17.4429C21.6419 17.2896 21.908 17.1772 22.1928 17.1155L22.2519 16.6143C22.2704 16.4572 22.4036 16.3388 22.5619 16.3388H22.8383C22.9965 16.3388 23.1297 16.4572 23.1482 16.6143L23.2073 17.1155C23.4921 17.1772 23.7582 17.2896 23.9956 17.4429L24.3924 17.1297C24.5167 17.0317 24.6946 17.0422 24.8064 17.1541L25.0019 17.3495C25.1138 17.4613 25.1243 17.6393 25.0262 17.7635L24.7131 18.1604C24.8664 18.3977 24.9788 18.6638 25.0404 18.9486L25.5416 19.0077C25.6987 19.0263 25.8172 19.1594 25.8172 19.3177V19.5941ZM25.8172 12.0333C25.8172 12.1915 25.6987 12.3247 25.5416 12.3432L25.0404 12.4023C24.9787 12.6871 24.8664 12.9532 24.7131 13.1905L25.0262 13.5875C25.1242 13.7117 25.1138 13.8896 25.0019 14.0014L24.8064 14.1969C24.6946 14.3087 24.5167 14.3192 24.3924 14.2212L23.9956 13.9081C23.7582 14.0613 23.4921 14.1737 23.2073 14.2354L23.1482 14.7365C23.1297 14.8937 22.9965 15.0121 22.8383 15.0121H22.5619C22.4036 15.0121 22.2704 14.8937 22.2519 14.7365L22.1928 14.2354C21.908 14.1737 21.6419 14.0613 21.4045 13.9081L21.0077 14.2212C20.8835 14.3192 20.7055 14.3087 20.5937 14.1969L20.3982 14.0014C20.2863 13.8896 20.2759 13.7117 20.3739 13.5875L20.687 13.1905C20.5337 12.9532 20.4213 12.6871 20.3597 12.4023L19.8585 12.3432C19.7014 12.3247 19.5829 12.1915 19.5829 12.0333V11.7568C19.5829 11.5986 19.7014 11.4654 19.8585 11.4469L20.3597 11.3878C20.4213 11.1031 20.5337 10.8369 20.687 10.5995L20.3739 10.2027C20.2759 10.0785 20.2863 9.90054 20.3982 9.78863L20.5937 9.59321C20.7056 9.48135 20.8835 9.47086 21.0077 9.56891L21.4045 9.88202C21.6419 9.72875 21.908 9.61634 22.1928 9.5547L22.2519 9.05353C22.2704 8.89638 22.4036 8.77795 22.5619 8.77795H22.8383C22.9965 8.77795 23.1297 8.89638 23.1482 9.05353L23.2073 9.5547C23.4921 9.61634 23.7582 9.72875 23.9956 9.88202L24.3924 9.56891C24.5167 9.47086 24.6946 9.48135 24.8064 9.59321L25.0019 9.78863C25.1138 9.90054 25.1243 10.0785 25.0262 10.2027L24.7131 10.5995C24.8664 10.8369 24.9788 11.103 25.0404 11.3878L25.5416 11.4469C25.6987 11.4654 25.8172 11.5986 25.8172 11.7568V12.0333Z" fill="#A30049"/>
<path d="M14.1016 13.1753C12.5615 13.1753 11.3086 14.4282 11.3086 15.9683C11.3086 17.5084 12.5615 18.7613 14.1016 18.7613C15.6417 18.7613 16.8946 17.5084 16.8946 15.9683C16.8946 14.4282 15.6417 13.1753 14.1016 13.1753ZM14.1016 17.5363C13.237 17.5363 12.5336 16.8329 12.5336 15.9683C12.5336 15.1037 13.237 14.4003 14.1016 14.4003C14.9662 14.4003 15.6696 15.1037 15.6696 15.9683C15.6696 16.8329 14.9662 17.5363 14.1016 17.5363Z" fill="#A30049"/>
</g>
<defs>
<clipPath id="clip0_1840_1069">
<rect width="35" height="35" fill="white" transform="translate(0.1875)"/>
</clipPath>
</defs>
</svg>
