<svg width="25" height="25" viewBox="0 0 25 25" fill="none" xmlns="http://www.w3.org/2000/svg">
<g clip-path="url(#clip0_1545_11250)">
<path d="M12.5 0.892822C14.5317 0.892822 16.4803 1.69993 17.9169 3.13659C19.3536 4.57326 20.1607 6.52179 20.1607 8.55354C20.1607 17.0714 23.2679 18.75 24.1071 18.75H0.892853C1.75 18.75 4.83928 17.0535 4.83928 8.55354C4.83928 6.52179 5.64639 4.57326 7.08305 3.13659C8.51972 1.69993 10.4682 0.892822 12.5 0.892822V0.892822Z" stroke="#111111" stroke-width="2" stroke-linecap="round" stroke-linejoin="round"/>
<path d="M9.82141 22.0178C9.97577 22.6107 10.3225 23.1357 10.8072 23.5104C11.292 23.8851 11.8873 24.0883 12.5 24.0883C13.1127 24.0883 13.708 23.8851 14.1927 23.5104C14.6775 23.1357 15.0242 22.6107 15.1786 22.0178" stroke="#111111" stroke-width="2" stroke-linecap="round" stroke-linejoin="round"/>
</g>
<defs>
<clipPath id="clip0_1545_11250">
<rect width="25" height="25" fill="white"/>
</clipPath>
</defs>
</svg>
