<svg width="20" height="18" viewBox="0 0 20 18" fill="none" xmlns="http://www.w3.org/2000/svg">
<path d="M19.5475 2.18681H17.5728V1.97079C17.5728 1.24165 16.9795 0.648438 16.2504 0.648438C15.5213 0.648438 14.9281 1.24165 14.9281 1.97079V2.18681H13.4058V1.97079C13.4058 1.24165 12.8126 0.648438 12.0835 0.648438C11.3543 0.648438 10.7611 1.24165 10.7611 1.97079V2.18681H9.23887V1.97079C9.23887 1.24165 8.64566 0.648438 7.91652 0.648438C7.18738 0.648438 6.59416 1.24165 6.59416 1.97079V2.18681H5.0719V1.97079C5.0719 1.24165 4.47869 0.648438 3.74955 0.648438C3.02041 0.648438 2.42719 1.24165 2.42719 1.97079V2.18681H0.452489C0.202579 2.18681 0 2.38939 0 2.6393V16.8983C0 17.1482 0.202579 17.3508 0.452489 17.3508H19.5475C19.7974 17.3508 20 17.1482 20 16.8983V2.6393C20 2.38939 19.7974 2.18681 19.5475 2.18681ZM16.2504 1.55337C16.4805 1.55337 16.6678 1.74061 16.6678 1.97075V3.30776C16.6678 3.53789 16.4805 3.72513 16.2504 3.72513C16.0203 3.72513 15.833 3.53789 15.833 3.30776V2.6397V1.97075C15.833 1.74061 16.0203 1.55337 16.2504 1.55337ZM12.0835 1.55337C12.3136 1.55337 12.5009 1.74061 12.5009 1.97075V3.30776C12.5009 3.53789 12.3136 3.72513 12.0835 3.72513C11.8533 3.72513 11.6661 3.53789 11.6661 3.30776V2.6397V1.97075C11.6661 1.74061 11.8533 1.55337 12.0835 1.55337ZM7.49914 1.97075C7.49914 1.74061 7.68638 1.55337 7.91652 1.55337C8.14665 1.55337 8.33389 1.74061 8.33389 1.97075V2.63884V3.3078C8.33389 3.53794 8.14665 3.72518 7.91652 3.72518C7.68638 3.72518 7.49914 3.53794 7.49914 3.3078V1.97075ZM3.74959 1.55337C3.97973 1.55337 4.16697 1.74061 4.16697 1.97075V3.30776C4.16697 3.53789 3.97973 3.72513 3.74959 3.72513C3.51946 3.72513 3.33222 3.53789 3.33222 3.30776V2.6397V1.97075C3.33222 1.74061 3.51941 1.55337 3.74959 1.55337ZM2.42724 3.09179V3.3078C2.42724 4.03694 3.02045 4.63016 3.74959 4.63016C4.47873 4.63016 5.07195 4.03694 5.07195 3.3078V3.09179H6.59421V3.3078C6.59421 4.03694 7.18742 4.63016 7.91656 4.63016C8.6457 4.63016 9.23891 4.03694 9.23891 3.3078V3.09179H10.7612V3.3078C10.7612 4.03694 11.3544 4.63016 12.0835 4.63016C12.8127 4.63016 13.4059 4.03694 13.4059 3.3078V3.09179H14.9281V3.3078C14.9281 4.03694 15.5213 4.63016 16.2505 4.63016C16.9796 4.63016 17.5728 4.03694 17.5728 3.3078V3.09179H19.095V5.25188H0.904977V3.09179H2.42724ZM0.904977 16.4458V6.15681H19.095V16.4458H0.904977Z" fill="#111111"/>
<path d="M4.36596 8.27246H2.89487C2.64496 8.27246 2.44238 8.47504 2.44238 8.72495C2.44238 8.97486 2.64496 9.17744 2.89487 9.17744H4.36596C4.61587 9.17744 4.81845 8.97486 4.81845 8.72495C4.81845 8.47504 4.61587 8.27246 4.36596 8.27246Z" fill="#111111"/>
<path d="M8.61156 8.27246H7.14048C6.89057 8.27246 6.68799 8.47504 6.68799 8.72495C6.68799 8.97486 6.89057 9.17744 7.14048 9.17744H8.61156C8.86147 9.17744 9.06405 8.97486 9.06405 8.72495C9.06405 8.47504 8.86147 8.27246 8.61156 8.27246Z" fill="#111111"/>
<path d="M12.8572 8.27246H11.3861C11.1362 8.27246 10.9336 8.47504 10.9336 8.72495C10.9336 8.97486 11.1362 9.17744 11.3861 9.17744H12.8572C13.1071 9.17744 13.3097 8.97486 13.3097 8.72495C13.3097 8.47504 13.1071 8.27246 12.8572 8.27246Z" fill="#111111"/>
<path d="M17.1028 8.27246H15.6317C15.3818 8.27246 15.1792 8.47504 15.1792 8.72495C15.1792 8.97486 15.3818 9.17744 15.6317 9.17744H17.1028C17.3527 9.17744 17.5553 8.97486 17.5553 8.72495C17.5553 8.47504 17.3527 8.27246 17.1028 8.27246Z" fill="#111111"/>
<path d="M4.36596 10.8262H2.89487C2.64496 10.8262 2.44238 11.0288 2.44238 11.2787C2.44238 11.5286 2.64496 11.7311 2.89487 11.7311H4.36596C4.61587 11.7311 4.81845 11.5286 4.81845 11.2787C4.81845 11.0288 4.61587 10.8262 4.36596 10.8262Z" fill="#111111"/>
<path d="M8.61156 10.8262H7.14048C6.89057 10.8262 6.68799 11.0288 6.68799 11.2787C6.68799 11.5286 6.89057 11.7311 7.14048 11.7311H8.61156C8.86147 11.7311 9.06405 11.5286 9.06405 11.2787C9.06405 11.0288 8.86147 10.8262 8.61156 10.8262Z" fill="#111111"/>
<path d="M12.8572 10.8262H11.3861C11.1362 10.8262 10.9336 11.0288 10.9336 11.2787C10.9336 11.5286 11.1362 11.7311 11.3861 11.7311H12.8572C13.1071 11.7311 13.3097 11.5286 13.3097 11.2787C13.3097 11.0288 13.1071 10.8262 12.8572 10.8262Z" fill="#111111"/>
<path d="M17.1028 10.8262H15.6317C15.3818 10.8262 15.1792 11.0288 15.1792 11.2787C15.1792 11.5286 15.3818 11.7311 15.6317 11.7311H17.1028C17.3527 11.7311 17.5553 11.5286 17.5553 11.2787C17.5553 11.0288 17.3527 10.8262 17.1028 10.8262Z" fill="#111111"/>
<path d="M4.36596 13.3809H2.89487C2.64496 13.3809 2.44238 13.5834 2.44238 13.8333C2.44238 14.0833 2.64496 14.2858 2.89487 14.2858H4.36596C4.61587 14.2858 4.81845 14.0833 4.81845 13.8333C4.81845 13.5834 4.61587 13.3809 4.36596 13.3809Z" fill="#111111"/>
<path d="M8.61156 13.3809H7.14048C6.89057 13.3809 6.68799 13.5834 6.68799 13.8333C6.68799 14.0833 6.89057 14.2858 7.14048 14.2858H8.61156C8.86147 14.2858 9.06405 14.0833 9.06405 13.8333C9.06405 13.5834 8.86147 13.3809 8.61156 13.3809Z" fill="#111111"/>
<path d="M12.8572 13.3809H11.3861C11.1362 13.3809 10.9336 13.5834 10.9336 13.8333C10.9336 14.0833 11.1362 14.2858 11.3861 14.2858H12.8572C13.1071 14.2858 13.3097 14.0833 13.3097 13.8333C13.3097 13.5834 13.1071 13.3809 12.8572 13.3809Z" fill="#111111"/>
<path d="M17.1028 13.3809H15.6317C15.3818 13.3809 15.1792 13.5834 15.1792 13.8333C15.1792 14.0833 15.3818 14.2858 15.6317 14.2858H17.1028C17.3527 14.2858 17.5553 14.0833 17.5553 13.8333C17.5553 13.5834 17.3527 13.3809 17.1028 13.3809Z" fill="#111111"/>
</svg>
