<svg width="30" height="24" viewBox="0 0 30 24" fill="none" xmlns="http://www.w3.org/2000/svg">
<path d="M28.9286 7.7147C28.9286 7.14638 28.7028 6.60134 28.3009 6.19948C27.8991 5.79761 27.354 5.57185 26.7857 5.57185H22.5L19.2857 1.28613H10.7143L7.49998 5.57185H3.21427C2.64595 5.57185 2.1009 5.79761 1.69904 6.19948C1.29718 6.60134 1.07141 7.14638 1.07141 7.7147V20.5718C1.07141 21.1402 1.29718 21.6852 1.69904 22.0871C2.1009 22.4889 2.64595 22.7147 3.21427 22.7147H26.7857C27.354 22.7147 27.8991 22.4889 28.3009 22.0871C28.7028 21.6852 28.9286 21.1402 28.9286 20.5718V7.7147Z" stroke="#111111" stroke-width="2" stroke-linecap="round" stroke-linejoin="round"/>
<path d="M15 17.8929C17.6628 17.8929 19.8214 15.7342 19.8214 13.0714C19.8214 10.4086 17.6628 8.25 15 8.25C12.3372 8.25 10.1786 10.4086 10.1786 13.0714C10.1786 15.7342 12.3372 17.8929 15 17.8929Z" stroke="#111111" stroke-width="2" stroke-linecap="round" stroke-linejoin="round"/>
</svg>
