<svg width="20" height="19" viewBox="0 0 20 19" fill="none" xmlns="http://www.w3.org/2000/svg">
<path d="M2.16997 16.3985L1.64283 7.39848C1.63187 7.30782 1.64035 7.21586 1.66771 7.12873C1.69507 7.0416 1.74068 6.96129 1.80151 6.89317C1.86233 6.82505 1.93698 6.77067 2.02046 6.73365C2.10395 6.69663 2.19436 6.67782 2.28569 6.67848H8.21283C8.35694 6.67938 8.49673 6.72771 8.61061 6.81603C8.72449 6.90434 8.8061 7.02771 8.84283 7.16706L9.35712 9.24991H17.7143C17.8032 9.24963 17.8912 9.2678 17.9728 9.30327C18.0543 9.33874 18.1276 9.39075 18.188 9.456C18.2484 9.52126 18.2947 9.59834 18.3238 9.68237C18.3529 9.7664 18.3642 9.85555 18.3571 9.9442L17.8557 16.3728C17.8298 16.6956 17.683 16.9968 17.4446 17.2161C17.2062 17.4354 16.8939 17.5567 16.57 17.5556H3.45569C3.13585 17.5572 2.82689 17.4396 2.58915 17.2256C2.35141 17.0116 2.20195 16.7167 2.16997 16.3985Z" stroke="#111111" stroke-width="1.5" stroke-linecap="round" stroke-linejoin="round"/>
<path d="M5.5 4.10711V1.53568C5.5 1.36518 5.56773 1.20167 5.68829 1.08111C5.80885 0.960552 5.97236 0.892822 6.14286 0.892822H17.0714C17.2419 0.892822 17.4054 0.960552 17.526 1.08111C17.6466 1.20167 17.7143 1.36518 17.7143 1.53568V6.67854" stroke="#111111" stroke-width="1.5" stroke-linecap="round" stroke-linejoin="round"/>
<path d="M10.6431 4.10706H14.5002" stroke="#111111" stroke-width="1.5" stroke-linecap="round" stroke-linejoin="round"/>
</svg>
