<svg width="20" height="20" viewBox="0 0 20 20" fill="none" xmlns="http://www.w3.org/2000/svg">
<path d="M1.42859 5H18.5714" stroke="#808080" stroke-width="1.5" stroke-linecap="round" stroke-linejoin="round"/>
<path d="M3.57141 5H16.4286V17.8571C16.4286 18.236 16.278 18.5994 16.0101 18.8673C15.7422 19.1352 15.3789 19.2857 15 19.2857H4.99998C4.6211 19.2857 4.25774 19.1352 3.98983 18.8673C3.72192 18.5994 3.57141 18.236 3.57141 17.8571V5Z" stroke="#808080" stroke-width="1.5" stroke-linecap="round" stroke-linejoin="round"/>
<path d="M6.42859 4.99958V4.2853C6.42859 3.33809 6.80486 2.42969 7.47464 1.75991C8.14441 1.09014 9.05282 0.713867 10 0.713867C10.9472 0.713867 11.8556 1.09014 12.5254 1.75991C13.1952 2.42969 13.5714 3.33809 13.5714 4.2853V4.99958" stroke="#808080" stroke-width="1.5" stroke-linecap="round" stroke-linejoin="round"/>
<path d="M7.85718 7.85645V15.7136" stroke="#808080" stroke-width="1.5" stroke-linecap="round" stroke-linejoin="round"/>
<path d="M12.1428 7.85645V15.7136" stroke="#808080" stroke-width="1.5" stroke-linecap="round" stroke-linejoin="round"/>
</svg>
