<svg width="21" height="23" viewBox="0 0 21 23" fill="none" xmlns="http://www.w3.org/2000/svg">
<path d="M1 6.33008H19.4611" stroke="#111111" stroke-width="1.5" stroke-linecap="round" stroke-linejoin="round"/>
<path d="M3.30762 6.33008H17.1535V20.1759C17.1535 20.5839 16.9914 20.9752 16.7029 21.2638C16.4144 21.5523 16.023 21.7143 15.615 21.7143H4.84604C4.43803 21.7143 4.04672 21.5523 3.75821 21.2638C3.4697 20.9752 3.30762 20.5839 3.30762 20.1759V6.33008Z" stroke="#111111" stroke-width="1.5" stroke-linecap="round" stroke-linejoin="round"/>
<path d="M6.38477 6.32915V5.55993C6.38477 4.53989 6.78998 3.56163 7.51125 2.84035C8.23253 2.11908 9.21079 1.71387 10.2308 1.71387C11.2509 1.71387 12.2291 2.11908 12.9504 2.84035C13.6717 3.56163 14.0769 4.53989 14.0769 5.55993V6.32915" stroke="#111111" stroke-width="1.5" stroke-linecap="round" stroke-linejoin="round"/>
<path d="M7.92285 9.40527V17.8666" stroke="#111111" stroke-width="1.5" stroke-linecap="round" stroke-linejoin="round"/>
<path d="M12.5381 9.40527V17.8666" stroke="#111111" stroke-width="1.5" stroke-linecap="round" stroke-linejoin="round"/>
</svg>
