<svg width="30" height="25" viewBox="0 0 30 25" fill="none" xmlns="http://www.w3.org/2000/svg">
<path d="M22.6189 0.892822H7.14274C6.78594 0.90262 6.43646 0.996244 6.12255 1.16612C5.80864 1.33601 5.53911 1.57737 5.33576 1.87071L1.46672 7.22786C1.17942 7.63384 1.03594 8.12414 1.05905 8.62096C1.08216 9.11777 1.27053 9.59264 1.59427 9.9702L13.2014 23.3418C13.4001 23.5978 13.6548 23.8051 13.9458 23.9476C14.2369 24.0902 14.5567 24.1643 14.8808 24.1643C15.2049 24.1643 15.5248 24.0902 15.8158 23.9476C16.1069 23.8051 16.3615 23.5978 16.5603 23.3418L28.1674 9.9702C28.4911 9.59264 28.6795 9.11777 28.7026 8.62096C28.7257 8.12414 28.5822 7.63384 28.2949 7.22786L24.4259 1.87071C24.2225 1.57737 23.953 1.33601 23.6391 1.16612C23.3252 0.996244 22.9757 0.90262 22.6189 0.892822Z" fill="#A30049" stroke="white" stroke-linecap="round" stroke-linejoin="round"/>
<path d="M13.7755 0.871582L8.58838 8.9073L14.8809 24.1071" fill="#A30049"/>
<path d="M13.7755 0.871582L8.58838 8.9073L14.8809 24.1071" stroke="white" stroke-linecap="round" stroke-linejoin="round"/>
<path d="M16.0501 0.871582L21.2159 8.9073L14.8809 24.1071" fill="#A30049"/>
<path d="M16.0501 0.871582L21.2159 8.9073L14.8809 24.1071" stroke="white" stroke-linecap="round" stroke-linejoin="round"/>
<path d="M1.10547 8.90729H28.6565" stroke="white" stroke-linecap="round" stroke-linejoin="round"/>
</svg>
