<svg width="16" height="21" viewBox="0 0 16 21" fill="none" xmlns="http://www.w3.org/2000/svg">
<path d="M11.5859 3.08264H13.663C14.0302 3.08264 14.3825 3.22853 14.6422 3.48823C14.9018 3.74792 15.0477 4.10014 15.0477 4.4674V18.3149C15.0477 18.6822 14.9018 19.0344 14.6422 19.2941C14.3825 19.5538 14.0302 19.6997 13.663 19.6997H2.58495C2.21769 19.6997 1.86547 19.5538 1.60578 19.2941C1.34609 19.0344 1.2002 18.6822 1.2002 18.3149V4.4674C1.2002 4.10014 1.34609 3.74792 1.60578 3.48823C1.86547 3.22853 2.21769 3.08264 2.58495 3.08264H4.66208" stroke="#111111" stroke-width="1.5" stroke-linecap="round" stroke-linejoin="round"/>
<path d="M10.2016 1.69922H6.04735C5.28257 1.69922 4.6626 2.31919 4.6626 3.08397V3.77635C4.6626 4.54113 5.28257 5.1611 6.04735 5.1611H10.2016C10.9664 5.1611 11.5864 4.54113 11.5864 3.77635V3.08397C11.5864 2.31919 10.9664 1.69922 10.2016 1.69922Z" stroke="#111111" stroke-width="1.5" stroke-linecap="round" stroke-linejoin="round"/>
<path d="M4.6626 8.62354H11.5864" stroke="#111111" stroke-width="1.5" stroke-linecap="round" stroke-linejoin="round"/>
<path d="M4.6626 12.0848H11.5864" stroke="#111111" stroke-width="1.5" stroke-linecap="round" stroke-linejoin="round"/>
<path d="M4.6626 15.5461H11.5864" stroke="#111111" stroke-width="1.5" stroke-linecap="round" stroke-linejoin="round"/>
</svg>
