<svg width="22" height="22" viewBox="0 0 22 22" fill="none" xmlns="http://www.w3.org/2000/svg">
<path d="M1.71387 20.2861H17.4282" stroke="#A30049" stroke-width="1.5" stroke-linecap="round" stroke-linejoin="round"/>
<path d="M10.2857 15.2858L6 16.0572L6.71429 11.7143L16.3286 2.12862C16.4614 1.99473 16.6194 1.88845 16.7935 1.81592C16.9675 1.74339 17.1543 1.70605 17.3429 1.70605C17.5314 1.70605 17.7182 1.74339 17.8923 1.81592C18.0663 1.88845 18.2243 1.99473 18.3571 2.12862L19.8714 3.64291C20.0053 3.77571 20.1116 3.93372 20.1841 4.1078C20.2567 4.28188 20.294 4.46861 20.294 4.65719C20.294 4.84578 20.2567 5.03251 20.1841 5.20659C20.1116 5.38067 20.0053 5.53868 19.8714 5.67148L10.2857 15.2858Z" stroke="#A30049" stroke-width="1.5" stroke-linecap="round" stroke-linejoin="round"/>
</svg>
