<svg width="68" height="80" viewBox="0 0 68 80" fill="none" xmlns="http://www.w3.org/2000/svg">
<path d="M67.6923 73.8462C67.6923 75.4783 67.044 77.0435 65.8899 78.1976C64.7358 79.3517 63.1706 80 61.5385 80H6.15385C4.52174 80 2.95649 79.3517 1.80242 78.1976C0.64835 77.0435 0 75.4783 0 73.8462V6.15385C0 4.52174 0.64835 2.95649 1.80242 1.80242C2.95649 0.64835 4.52174 0 6.15385 0H32.7809C35.4331 0 37.9766 1.05357 39.852 2.92893L64.7634 27.8403C66.6387 29.7157 67.6923 32.2592 67.6923 34.9114V73.8462Z" fill="url(#paint0_linear_1531_1690)"/>
<path d="M18.4614 24.6152H30.7691" stroke="white" stroke-width="4" stroke-linecap="round" stroke-linejoin="round"/>
<path d="M18.4614 43.0771H49.2307" stroke="white" stroke-width="4" stroke-linecap="round" stroke-linejoin="round"/>
<path d="M18.4614 61.5386H49.2307" stroke="white" stroke-width="4" stroke-linecap="round" stroke-linejoin="round"/>
<defs>
<linearGradient id="paint0_linear_1531_1690" x1="22" y1="-6" x2="43" y2="91" gradientUnits="userSpaceOnUse">
<stop stop-color="#EE006A"/>
<stop offset="1" stop-color="#510124"/>
</linearGradient>
</defs>
</svg>
