<svg width="18" height="19" viewBox="0 0 18 19" fill="none" xmlns="http://www.w3.org/2000/svg">
<g clip-path="url(#clip0_777_1913)">
<path d="M10.9288 1.01788H1.92878C1.58779 1.01788 1.26076 1.15334 1.01964 1.39446C0.778525 1.63558 0.643066 1.9626 0.643066 2.3036V16.4465C0.643066 16.7874 0.778525 17.1145 1.01964 17.3556C1.26076 17.5967 1.58779 17.7322 1.92878 17.7322H16.0716C16.4126 17.7322 16.7397 17.5967 16.9808 17.3556C17.2219 17.1145 17.3574 16.7874 17.3574 16.4465V7.44645L10.9288 1.01788Z" stroke="#A30049" stroke-width="1.5" stroke-linecap="round" stroke-linejoin="round"/>
<path d="M10.9287 6.8036V1.01788L17.3573 7.44645H11.5716C11.4011 7.44645 11.2376 7.37873 11.117 7.25817C10.9964 7.13761 10.9287 6.97409 10.9287 6.8036Z" stroke="#A30049" stroke-width="1.5" stroke-linecap="round" stroke-linejoin="round"/>
<path d="M5.78613 6.16075V4.23218" stroke="#A30049" stroke-width="1.5" stroke-linecap="round" stroke-linejoin="round"/>
<path d="M3.85742 11.3036C3.85742 12.2679 4.71885 12.5893 5.78599 12.5893C6.85314 12.5893 7.71456 12.5893 7.71456 11.3036C7.71456 9.37505 3.85742 9.37505 3.85742 7.44648C3.85742 6.16077 4.71885 6.16077 5.78599 6.16077C6.85314 6.16077 7.71456 6.64934 7.71456 7.44648" stroke="#A30049" stroke-width="1.5" stroke-linecap="round" stroke-linejoin="round"/>
<path d="M5.78613 12.5893V14.5179" stroke="#A30049" stroke-width="1.5" stroke-linecap="round" stroke-linejoin="round"/>
<path d="M10.9287 12.5893H14.7859" stroke="#A30049" stroke-width="1.5" stroke-linecap="round" stroke-linejoin="round"/>
</g>
<defs>
<clipPath id="clip0_777_1913">
<rect width="18" height="18" fill="white" transform="translate(0 0.375)"/>
</clipPath>
</defs>
</svg>
