<svg width="54" height="54" viewBox="0 0 54 54" fill="none" xmlns="http://www.w3.org/2000/svg">
<path d="M52.177 23.3269L48.5482 19.1111C47.8545 18.3106 47.2942 16.8164 47.2942 15.7492V11.2132C47.2942 8.38488 44.9728 6.06353 42.1445 6.06353H37.6085C36.5679 6.06353 35.047 5.5032 34.2466 4.80946L30.0308 1.18069C28.1897 -0.393562 25.1746 -0.393562 23.3069 1.18069L19.1178 4.83615C18.3173 5.5032 16.7964 6.06353 15.7558 6.06353H11.1398C8.3115 6.06353 5.99015 8.38488 5.99015 11.2132V15.7758C5.99015 16.8164 5.42982 18.3106 4.76277 19.1111L1.16067 23.3536C-0.386892 25.1947 -0.386892 28.1831 1.16067 30.0241L4.76277 34.2666C5.42982 35.0671 5.99015 36.5613 5.99015 37.6019V42.1645C5.99015 44.9928 8.3115 47.3142 11.1398 47.3142H15.7558C16.7964 47.3142 18.3173 47.8745 19.1178 48.5682L23.3336 52.197C25.1746 53.7713 28.1897 53.7713 30.0575 52.197L34.2733 48.5682C35.0737 47.8745 36.5679 47.3142 37.6352 47.3142H42.1712C44.9995 47.3142 47.3209 44.9928 47.3209 42.1645V37.6285C47.3209 36.5879 47.8812 35.0671 48.5749 34.2666L52.2037 30.0508C53.7513 28.2097 53.7513 25.168 52.177 23.3269ZM37.7686 21.6459L24.8811 34.5334C24.5076 34.907 24.0006 35.1204 23.467 35.1204C22.9333 35.1204 22.4264 34.907 22.0528 34.5334L15.5957 28.0763C14.822 27.3025 14.822 26.0218 15.5957 25.248C16.3695 24.4742 17.6503 24.4742 18.424 25.248L23.467 30.2909L34.9403 18.8176C35.7141 18.0438 36.9948 18.0438 37.7686 18.8176C38.5424 19.5914 38.5424 20.8721 37.7686 21.6459Z" fill="url(#paint0_linear_1862_4132)"/>
<defs>
<linearGradient id="paint0_linear_1862_4132" x1="26.6805" y1="0" x2="26.6805" y2="53.3777" gradientUnits="userSpaceOnUse">
<stop stop-color="#EE006A"/>
<stop offset="1" stop-color="#510124"/>
</linearGradient>
</defs>
</svg>
