<svg width="18" height="18" viewBox="0 0 18 18" fill="none" xmlns="http://www.w3.org/2000/svg">
<path d="M11.263 16.7143C12.0548 17.2251 12.9983 17.4477 13.9349 17.3447C14.8715 17.2416 15.744 16.8193 16.4058 16.1486L16.9844 15.5829C17.2381 15.3234 17.3801 14.975 17.3801 14.6121C17.3801 14.2493 17.2381 13.9009 16.9844 13.6414L14.5287 11.2114C14.2714 10.9586 13.9251 10.8169 13.5644 10.8169C13.2037 10.8169 12.8574 10.9586 12.6001 11.2114V11.2114C12.3407 11.4651 11.9923 11.6071 11.6294 11.6071C11.2666 11.6071 10.9181 11.4651 10.6587 11.2114L6.80155 7.35428C6.67288 7.22748 6.5707 7.07636 6.50096 6.90972C6.43122 6.74307 6.3953 6.56422 6.3953 6.38357C6.3953 6.20292 6.43122 6.02407 6.50096 5.85742C6.5707 5.69078 6.67288 5.53966 6.80155 5.41286V5.41286C7.05439 5.15558 7.19607 4.80929 7.19607 4.44857C7.19607 4.08785 7.05439 3.74156 6.80155 3.48428L4.3587 1.04143C4.09925 0.787775 3.75082 0.645752 3.38798 0.645752C3.02514 0.645752 2.67671 0.787775 2.41727 1.04143L1.85155 1.62C1.18085 2.28181 0.758483 3.15437 0.655457 4.09097C0.552431 5.02757 0.775035 5.97108 1.28584 6.76286C3.94732 10.6852 7.33376 14.0629 11.263 16.7143V16.7143Z" stroke="#111111" stroke-linecap="round" stroke-linejoin="round"/>
</svg>
