<svg width="30" height="24" viewBox="0 0 30 24" fill="none" xmlns="http://www.w3.org/2000/svg">
<path d="M28.2834 2.78982C26.7462 1.54834 21.3254 0.574219 15 0.574219C8.67463 0.574219 3.25377 1.54834 1.71662 2.78982C0.303984 3.92871 0 9.07764 0 12C0 14.9224 0.303984 20.0713 1.71662 21.2102C3.25377 22.4517 8.67463 23.4258 15 23.4258C21.3254 23.4258 26.7462 22.4517 28.2834 21.2102C29.6961 20.0713 30 14.9224 30 12C30 9.07764 29.6961 3.92871 28.2834 2.78982ZM19.5008 12.141L12.5372 16.2975C12.486 16.3268 12.4237 16.3286 12.3724 16.2993C12.3212 16.27 12.2891 16.2151 12.2891 16.1565V12V7.84348C12.2891 7.78395 12.3212 7.72992 12.3724 7.70062C12.4237 7.67133 12.486 7.67314 12.5372 7.70244L19.5008 11.859C19.5502 11.8883 19.5804 11.9413 19.5804 11.9999C19.5804 12.0568 19.5502 12.1117 19.5008 12.141Z" fill="url(#paint0_linear_777_3896)"/>
<defs>
<linearGradient id="paint0_linear_777_3896" x1="15" y1="0.574219" x2="15" y2="23.4258" gradientUnits="userSpaceOnUse">
<stop stop-color="#EE006A"/>
<stop offset="1" stop-color="#510124"/>
</linearGradient>
</defs>
</svg>
